<?xml version="1.0" encoding="UTF-8" standalone="no"?><svg xmlns="http://www.w3.org/2000/svg" xmlns:xlink="http://www.w3.org/1999/xlink" contentScriptType="application/ecmascript" contentStyleType="text/css" height="2108px" preserveAspectRatio="none" style="width:321px;height:2108px;background:#FFFFFF;" version="1.1" viewBox="0 0 321 2108" width="321px" zoomAndPan="magnify"><defs><filter height="300%" id="f1mo6aksj8mioi" width="300%" x="-1" y="-1"><feGaussianBlur result="blurOut" stdDeviation="2.0"/><feColorMatrix in="blurOut" result="blurOut2" type="matrix" values="0 0 0 0 0 0 0 0 0 0 0 0 0 0 0 0 0 0 .4 0"/><feOffset dx="4.0" dy="4.0" in="blurOut2" result="blurOut3"/><feBlend in="SourceGraphic" in2="blurOut3" mode="normal"/></filter></defs><g><rect fill="#FEFECE" filter="url(#f1mo6aksj8mioi)" height="34.4001" style="stroke:#A80036;stroke-width:1.5;" width="224" x="45" y="98"/><text fill="#000000" font-family="sans-serif" font-size="12" lengthAdjust="spacing" textLength="64" x="125" y="111.1481">Conv2d_1a</text><line style="stroke:#A80036;stroke-width:1.0;" x1="45" x2="269" y1="116.4001" y2="116.4001"/><text fill="#000000" font-family="sans-serif" font-size="10" lengthAdjust="spacing" textLength="61" x="50" y="127.6901">BasicConv2d</text><text fill="#000000" font-family="sans-serif" font-size="10" lengthAdjust="spacing" textLength="143" x="121" y="127.6901">(3, 32, kernel_size=3, stride=2)</text><line style="stroke:#A80036;stroke-width:1.0;" x1="116" x2="116" y1="116.4001" y2="132.4001"/><rect fill="#FEFECE" filter="url(#f1mo6aksj8mioi)" height="34.4001" style="stroke:#A80036;stroke-width:1.5;" width="230" x="42" y="199"/><text fill="#000000" font-family="sans-serif" font-size="12" lengthAdjust="spacing" textLength="64" x="125" y="212.1481">Conv2d_2a</text><line style="stroke:#A80036;stroke-width:1.0;" x1="42" x2="272" y1="217.4001" y2="217.4001"/><text fill="#000000" font-family="sans-serif" font-size="10" lengthAdjust="spacing" textLength="61" x="47" y="228.6901">BasicConv2d</text><text fill="#000000" font-family="sans-serif" font-size="10" lengthAdjust="spacing" textLength="149" x="118" y="228.6901">(32, 32, kernel_size=3, stride=1)</text><line style="stroke:#A80036;stroke-width:1.0;" x1="113" x2="113" y1="217.4001" y2="233.4001"/><rect fill="#FEFECE" filter="url(#f1mo6aksj8mioi)" height="34.4001" style="stroke:#A80036;stroke-width:1.5;" width="286" x="14" y="300"/><text fill="#000000" font-family="sans-serif" font-size="12" lengthAdjust="spacing" textLength="64" x="125" y="313.1481">Conv2d_2b</text><line style="stroke:#A80036;stroke-width:1.0;" x1="14" x2="300" y1="318.4001" y2="318.4001"/><text fill="#000000" font-family="sans-serif" font-size="10" lengthAdjust="spacing" textLength="61" x="19" y="329.6901">BasicConv2d</text><text fill="#000000" font-family="sans-serif" font-size="10" lengthAdjust="spacing" textLength="205" x="90" y="329.6901">(32, 64, kernel_size=3, stride=1, padding=1)</text><line style="stroke:#A80036;stroke-width:1.0;" x1="85" x2="85" y1="318.4001" y2="334.4001"/><rect fill="#FEFECE" filter="url(#f1mo6aksj8mioi)" height="34.4001" style="stroke:#A80036;stroke-width:1.5;" width="127" x="93.5" y="401"/><text fill="#000000" font-family="sans-serif" font-size="12" lengthAdjust="spacing" textLength="68" x="123" y="414.1481">Maxpool_3a</text><line style="stroke:#A80036;stroke-width:1.0;" x1="93.5" x2="220.5" y1="419.4001" y2="419.4001"/><text fill="#000000" font-family="sans-serif" font-size="10" lengthAdjust="spacing" textLength="52" x="98.5" y="430.6901">MaxPool2d</text><text fill="#000000" font-family="sans-serif" font-size="10" lengthAdjust="spacing" textLength="55" x="160.5" y="430.6901">(3, stride=2)</text><line style="stroke:#A80036;stroke-width:1.0;" x1="155.5" x2="155.5" y1="419.4001" y2="435.4001"/><rect fill="#FEFECE" filter="url(#f1mo6aksj8mioi)" height="34.4001" style="stroke:#A80036;stroke-width:1.5;" width="230" x="42" y="502"/><text fill="#000000" font-family="sans-serif" font-size="12" lengthAdjust="spacing" textLength="64" x="125" y="515.1481">Conv2d_3b</text><line style="stroke:#A80036;stroke-width:1.0;" x1="42" x2="272" y1="520.4001" y2="520.4001"/><text fill="#000000" font-family="sans-serif" font-size="10" lengthAdjust="spacing" textLength="61" x="47" y="531.6901">BasicConv2d</text><text fill="#000000" font-family="sans-serif" font-size="10" lengthAdjust="spacing" textLength="149" x="118" y="531.6901">(64, 80, kernel_size=1, stride=1)</text><line style="stroke:#A80036;stroke-width:1.0;" x1="113" x2="113" y1="520.4001" y2="536.4001"/><rect fill="#FEFECE" filter="url(#f1mo6aksj8mioi)" height="34.4001" style="stroke:#A80036;stroke-width:1.5;" width="230" x="42" y="603"/><text fill="#000000" font-family="sans-serif" font-size="12" lengthAdjust="spacing" textLength="64" x="125" y="616.1481">Conv2d_4a</text><line style="stroke:#A80036;stroke-width:1.0;" x1="42" x2="272" y1="621.4001" y2="621.4001"/><text fill="#000000" font-family="sans-serif" font-size="10" lengthAdjust="spacing" textLength="61" x="47" y="632.6901">BasicConv2d</text><text fill="#000000" font-family="sans-serif" font-size="10" lengthAdjust="spacing" textLength="149" x="118" y="632.6901">(64, 80, kernel_size=1, stride=1)</text><line style="stroke:#A80036;stroke-width:1.0;" x1="113" x2="113" y1="621.4001" y2="637.4001"/><rect fill="#FEFECE" filter="url(#f1mo6aksj8mioi)" height="34.4001" style="stroke:#A80036;stroke-width:1.5;" width="242" x="36" y="704"/><text fill="#000000" font-family="sans-serif" font-size="12" lengthAdjust="spacing" textLength="64" x="125" y="717.1481">Conv2d_4b</text><line style="stroke:#A80036;stroke-width:1.0;" x1="36" x2="278" y1="722.4001" y2="722.4001"/><text fill="#000000" font-family="sans-serif" font-size="10" lengthAdjust="spacing" textLength="61" x="41" y="733.6901">BasicConv2d</text><text fill="#000000" font-family="sans-serif" font-size="10" lengthAdjust="spacing" textLength="161" x="112" y="733.6901">(192, 256, kernel_size=3, stride=2)</text><line style="stroke:#A80036;stroke-width:1.0;" x1="107" x2="107" y1="722.4001" y2="738.4001"/><rect fill="#FEFECE" filter="url(#f1mo6aksj8mioi)" height="98.4" style="stroke:#A80036;stroke-width:1.5;" width="126" x="94" y="805"/><text fill="#000000" font-family="sans-serif" font-size="12" lengthAdjust="spacing" textLength="54" x="130" y="818.1481">Repeat_1</text><line style="stroke:#A80036;stroke-width:1.0;" x1="94" x2="220" y1="823.4001" y2="823.4001"/><text fill="#000000" font-family="sans-serif" font-size="10" lengthAdjust="spacing" textLength="49" x="99" y="834.6901">Block35_0</text><text fill="#000000" font-family="sans-serif" font-size="10" lengthAdjust="spacing" textLength="57" x="158" y="834.6901">(scale=0.17)</text><line style="stroke:#A80036;stroke-width:1.0;" x1="153" x2="153" y1="823.4001" y2="839.4001"/><line style="stroke:#A80036;stroke-width:1.0;" x1="94" x2="220" y1="839.4001" y2="839.4001"/><text fill="#000000" font-family="sans-serif" font-size="10" lengthAdjust="spacing" textLength="49" x="99" y="850.6901">Block35_1</text><text fill="#000000" font-family="sans-serif" font-size="10" lengthAdjust="spacing" textLength="57" x="158" y="850.6901">(scale=0.17)</text><line style="stroke:#A80036;stroke-width:1.0;" x1="153" x2="153" y1="839.4001" y2="855.4001"/><line style="stroke:#A80036;stroke-width:1.0;" x1="94" x2="220" y1="855.4001" y2="855.4001"/><text fill="#000000" font-family="sans-serif" font-size="10" lengthAdjust="spacing" textLength="49" x="99" y="866.6901">Block35_2</text><text fill="#000000" font-family="sans-serif" font-size="10" lengthAdjust="spacing" textLength="57" x="158" y="866.6901">(scale=0.17)</text><line style="stroke:#A80036;stroke-width:1.0;" x1="153" x2="153" y1="855.4001" y2="871.4001"/><line style="stroke:#A80036;stroke-width:1.0;" x1="94" x2="220" y1="871.4001" y2="871.4001"/><text fill="#000000" font-family="sans-serif" font-size="10" lengthAdjust="spacing" textLength="49" x="99" y="882.6901">Block35_3</text><text fill="#000000" font-family="sans-serif" font-size="10" lengthAdjust="spacing" textLength="57" x="158" y="882.6901">(scale=0.17)</text><line style="stroke:#A80036;stroke-width:1.0;" x1="153" x2="153" y1="871.4001" y2="887.4001"/><line style="stroke:#A80036;stroke-width:1.0;" x1="94" x2="220" y1="887.4001" y2="887.4001"/><text fill="#000000" font-family="sans-serif" font-size="10" lengthAdjust="spacing" textLength="49" x="99" y="898.69">Block35_4</text><text fill="#000000" font-family="sans-serif" font-size="10" lengthAdjust="spacing" textLength="57" x="158" y="898.69">(scale=0.17)</text><line style="stroke:#A80036;stroke-width:1.0;" x1="153" x2="153" y1="887.4001" y2="903.4"/><rect fill="#FEFECE" filter="url(#f1mo6aksj8mioi)" height="18.4001" style="stroke:#A80036;stroke-width:1.5;" width="68" x="123" y="971"/><text fill="#000000" font-family="sans-serif" font-size="12" lengthAdjust="spacing" textLength="54" x="130" y="984.1481">Mixed_6a</text><rect fill="#FEFECE" filter="url(#f1mo6aksj8mioi)" height="178.4" style="stroke:#A80036;stroke-width:1.5;" width="126" x="94" y="1062"/><text fill="#000000" font-family="sans-serif" font-size="12" lengthAdjust="spacing" textLength="54" x="130" y="1075.1481">Repeat_2</text><line style="stroke:#A80036;stroke-width:1.0;" x1="94" x2="220" y1="1080.4001" y2="1080.4001"/><text fill="#000000" font-family="sans-serif" font-size="10" lengthAdjust="spacing" textLength="49" x="99" y="1091.6901">Block17_0</text><text fill="#000000" font-family="sans-serif" font-size="10" lengthAdjust="spacing" textLength="57" x="158" y="1091.6901">(scale=0.10)</text><line style="stroke:#A80036;stroke-width:1.0;" x1="153" x2="153" y1="1080.4001" y2="1096.4001"/><line style="stroke:#A80036;stroke-width:1.0;" x1="94" x2="220" y1="1096.4001" y2="1096.4001"/><text fill="#000000" font-family="sans-serif" font-size="10" lengthAdjust="spacing" textLength="49" x="99" y="1107.6901">Block17_1</text><text fill="#000000" font-family="sans-serif" font-size="10" lengthAdjust="spacing" textLength="57" x="158" y="1107.6901">(scale=0.10)</text><line style="stroke:#A80036;stroke-width:1.0;" x1="153" x2="153" y1="1096.4001" y2="1112.4001"/><line style="stroke:#A80036;stroke-width:1.0;" x1="94" x2="220" y1="1112.4001" y2="1112.4001"/><text fill="#000000" font-family="sans-serif" font-size="10" lengthAdjust="spacing" textLength="49" x="99" y="1123.6901">Block17_2</text><text fill="#000000" font-family="sans-serif" font-size="10" lengthAdjust="spacing" textLength="57" x="158" y="1123.6901">(scale=0.10)</text><line style="stroke:#A80036;stroke-width:1.0;" x1="153" x2="153" y1="1112.4001" y2="1128.4001"/><line style="stroke:#A80036;stroke-width:1.0;" x1="94" x2="220" y1="1128.4001" y2="1128.4001"/><text fill="#000000" font-family="sans-serif" font-size="10" lengthAdjust="spacing" textLength="49" x="99" y="1139.6901">Block17_3</text><text fill="#000000" font-family="sans-serif" font-size="10" lengthAdjust="spacing" textLength="57" x="158" y="1139.6901">(scale=0.10)</text><line style="stroke:#A80036;stroke-width:1.0;" x1="153" x2="153" y1="1128.4001" y2="1144.4001"/><line style="stroke:#A80036;stroke-width:1.0;" x1="94" x2="220" y1="1144.4001" y2="1144.4001"/><text fill="#000000" font-family="sans-serif" font-size="10" lengthAdjust="spacing" textLength="49" x="99" y="1155.69">Block17_4</text><text fill="#000000" font-family="sans-serif" font-size="10" lengthAdjust="spacing" textLength="57" x="158" y="1155.69">(scale=0.10)</text><line style="stroke:#A80036;stroke-width:1.0;" x1="153" x2="153" y1="1144.4001" y2="1160.4"/><line style="stroke:#A80036;stroke-width:1.0;" x1="94" x2="220" y1="1160.4" y2="1160.4"/><text fill="#000000" font-family="sans-serif" font-size="10" lengthAdjust="spacing" textLength="49" x="99" y="1171.69">Block17_5</text><text fill="#000000" font-family="sans-serif" font-size="10" lengthAdjust="spacing" textLength="57" x="158" y="1171.69">(scale=0.10)</text><line style="stroke:#A80036;stroke-width:1.0;" x1="153" x2="153" y1="1160.4" y2="1176.4"/><line style="stroke:#A80036;stroke-width:1.0;" x1="94" x2="220" y1="1176.4" y2="1176.4"/><text fill="#000000" font-family="sans-serif" font-size="10" lengthAdjust="spacing" textLength="49" x="99" y="1187.69">Block17_6</text><text fill="#000000" font-family="sans-serif" font-size="10" lengthAdjust="spacing" textLength="57" x="158" y="1187.69">(scale=0.10)</text><line style="stroke:#A80036;stroke-width:1.0;" x1="153" x2="153" y1="1176.4" y2="1192.4"/><line style="stroke:#A80036;stroke-width:1.0;" x1="94" x2="220" y1="1192.4" y2="1192.4"/><text fill="#000000" font-family="sans-serif" font-size="10" lengthAdjust="spacing" textLength="49" x="99" y="1203.69">Block17_7</text><text fill="#000000" font-family="sans-serif" font-size="10" lengthAdjust="spacing" textLength="57" x="158" y="1203.69">(scale=0.10)</text><line style="stroke:#A80036;stroke-width:1.0;" x1="153" x2="153" y1="1192.4" y2="1208.4"/><line style="stroke:#A80036;stroke-width:1.0;" x1="94" x2="220" y1="1208.4" y2="1208.4"/><text fill="#000000" font-family="sans-serif" font-size="10" lengthAdjust="spacing" textLength="49" x="99" y="1219.69">Block17_8</text><text fill="#000000" font-family="sans-serif" font-size="10" lengthAdjust="spacing" textLength="57" x="158" y="1219.69">(scale=0.10)</text><line style="stroke:#A80036;stroke-width:1.0;" x1="153" x2="153" y1="1208.4" y2="1224.4"/><line style="stroke:#A80036;stroke-width:1.0;" x1="94" x2="220" y1="1224.4" y2="1224.4"/><text fill="#000000" font-family="sans-serif" font-size="10" lengthAdjust="spacing" textLength="49" x="99" y="1235.69">Block17_9</text><text fill="#000000" font-family="sans-serif" font-size="10" lengthAdjust="spacing" textLength="57" x="158" y="1235.69">(scale=0.10)</text><line style="stroke:#A80036;stroke-width:1.0;" x1="153" x2="153" y1="1224.4" y2="1240.4"/><rect fill="#FEFECE" filter="url(#f1mo6aksj8mioi)" height="18.4001" style="stroke:#A80036;stroke-width:1.5;" width="68" x="123" y="1303"/><text fill="#000000" font-family="sans-serif" font-size="12" lengthAdjust="spacing" textLength="54" x="130" y="1316.1481">Mixed_7a</text><rect fill="#FEFECE" filter="url(#f1mo6aksj8mioi)" height="98.4" style="stroke:#A80036;stroke-width:1.5;" width="120" x="97" y="1394"/><text fill="#000000" font-family="sans-serif" font-size="12" lengthAdjust="spacing" textLength="54" x="130" y="1407.1481">Repeat_3</text><line style="stroke:#A80036;stroke-width:1.0;" x1="97" x2="217" y1="1412.4001" y2="1412.4001"/><text fill="#000000" font-family="sans-serif" font-size="10" lengthAdjust="spacing" textLength="43" x="102" y="1423.6901">Block8_0</text><text fill="#000000" font-family="sans-serif" font-size="10" lengthAdjust="spacing" textLength="57" x="155" y="1423.6901">(scale=0.20)</text><line style="stroke:#A80036;stroke-width:1.0;" x1="150" x2="150" y1="1412.4001" y2="1428.4001"/><line style="stroke:#A80036;stroke-width:1.0;" x1="97" x2="217" y1="1428.4001" y2="1428.4001"/><text fill="#000000" font-family="sans-serif" font-size="10" lengthAdjust="spacing" textLength="43" x="102" y="1439.6901">Block8_1</text><text fill="#000000" font-family="sans-serif" font-size="10" lengthAdjust="spacing" textLength="57" x="155" y="1439.6901">(scale=0.20)</text><line style="stroke:#A80036;stroke-width:1.0;" x1="150" x2="150" y1="1428.4001" y2="1444.4001"/><line style="stroke:#A80036;stroke-width:1.0;" x1="97" x2="217" y1="1444.4001" y2="1444.4001"/><text fill="#000000" font-family="sans-serif" font-size="10" lengthAdjust="spacing" textLength="43" x="102" y="1455.6901">Block8_2</text><text fill="#000000" font-family="sans-serif" font-size="10" lengthAdjust="spacing" textLength="57" x="155" y="1455.6901">(scale=0.20)</text><line style="stroke:#A80036;stroke-width:1.0;" x1="150" x2="150" y1="1444.4001" y2="1460.4001"/><line style="stroke:#A80036;stroke-width:1.0;" x1="97" x2="217" y1="1460.4001" y2="1460.4001"/><text fill="#000000" font-family="sans-serif" font-size="10" lengthAdjust="spacing" textLength="43" x="102" y="1471.6901">Block8_3</text><text fill="#000000" font-family="sans-serif" font-size="10" lengthAdjust="spacing" textLength="57" x="155" y="1471.6901">(scale=0.20)</text><line style="stroke:#A80036;stroke-width:1.0;" x1="150" x2="150" y1="1460.4001" y2="1476.4001"/><line style="stroke:#A80036;stroke-width:1.0;" x1="97" x2="217" y1="1476.4001" y2="1476.4001"/><text fill="#000000" font-family="sans-serif" font-size="10" lengthAdjust="spacing" textLength="43" x="102" y="1487.69">Block8_4</text><text fill="#000000" font-family="sans-serif" font-size="10" lengthAdjust="spacing" textLength="57" x="155" y="1487.69">(scale=0.20)</text><line style="stroke:#A80036;stroke-width:1.0;" x1="150" x2="150" y1="1476.4001" y2="1492.4"/><rect fill="#FEFECE" filter="url(#f1mo6aksj8mioi)" height="34.4001" style="stroke:#A80036;stroke-width:1.5;" width="95" x="109.5" y="1555"/><text fill="#000000" font-family="sans-serif" font-size="12" lengthAdjust="spacing" textLength="37" x="138.5" y="1568.1481">Block8</text><line style="stroke:#A80036;stroke-width:1.0;" x1="109.5" x2="204.5" y1="1573.4001" y2="1573.4001"/><text fill="#000000" font-family="sans-serif" font-size="10" lengthAdjust="spacing" textLength="31" x="114.5" y="1584.6901">Block8</text><text fill="#000000" font-family="sans-serif" font-size="10" lengthAdjust="spacing" textLength="44" x="155.5" y="1584.6901">(noReLU)</text><line style="stroke:#A80036;stroke-width:1.0;" x1="150.5" x2="150.5" y1="1573.4001" y2="1589.4001"/><rect fill="#FEFECE" filter="url(#f1mo6aksj8mioi)" height="34.4001" style="stroke:#A80036;stroke-width:1.5;" width="124" x="95" y="1656"/><text fill="#000000" font-family="sans-serif" font-size="12" lengthAdjust="spacing" textLength="66" x="124" y="1669.1481">Avgpool_1a</text><line style="stroke:#A80036;stroke-width:1.0;" x1="95" x2="219" y1="1674.4001" y2="1674.4001"/><text fill="#000000" font-family="sans-serif" font-size="10" lengthAdjust="spacing" textLength="92" x="100" y="1685.6901">AdaptiveAvgPool2d</text><text fill="#000000" font-family="sans-serif" font-size="10" lengthAdjust="spacing" textLength="12" x="202" y="1685.6901">(1)</text><line style="stroke:#A80036;stroke-width:1.0;" x1="197" x2="197" y1="1674.4001" y2="1690.4001"/><rect fill="#FEFECE" filter="url(#f1mo6aksj8mioi)" height="34.4001" style="stroke:#A80036;stroke-width:1.5;" width="126" x="94" y="1757"/><text fill="#000000" font-family="sans-serif" font-size="12" lengthAdjust="spacing" textLength="44" x="135" y="1770.1481">Dropout</text><line style="stroke:#A80036;stroke-width:1.0;" x1="94" x2="220" y1="1775.4001" y2="1775.4001"/><text fill="#000000" font-family="sans-serif" font-size="10" lengthAdjust="spacing" textLength="37" x="99" y="1786.6901">Dropout</text><text fill="#000000" font-family="sans-serif" font-size="10" lengthAdjust="spacing" textLength="69" x="146" y="1786.6901">(dropout_prob)</text><line style="stroke:#A80036;stroke-width:1.0;" x1="141" x2="141" y1="1775.4001" y2="1791.4001"/><rect fill="#FEFECE" filter="url(#f1mo6aksj8mioi)" height="34.4001" style="stroke:#A80036;stroke-width:1.5;" width="159" x="77.5" y="1858"/><text fill="#000000" font-family="sans-serif" font-size="12" lengthAdjust="spacing" textLength="16" x="149" y="1871.1481">FC</text><line style="stroke:#A80036;stroke-width:1.0;" x1="77.5" x2="236.5" y1="1876.4001" y2="1876.4001"/><text fill="#000000" font-family="sans-serif" font-size="10" lengthAdjust="spacing" textLength="29" x="82.5" y="1887.6901">Linear</text><text fill="#000000" font-family="sans-serif" font-size="10" lengthAdjust="spacing" textLength="110" x="121.5" y="1887.6901">(1792, 512, bias=False)</text><line style="stroke:#A80036;stroke-width:1.0;" x1="116.5" x2="116.5" y1="1876.4001" y2="1892.4001"/><rect fill="#FEFECE" filter="url(#f1mo6aksj8mioi)" height="34.4001" style="stroke:#A80036;stroke-width:1.5;" width="300" x="7" y="1959"/><text fill="#000000" font-family="sans-serif" font-size="12" lengthAdjust="spacing" textLength="17" x="148.5" y="1972.1481">BN</text><line style="stroke:#A80036;stroke-width:1.0;" x1="7" x2="307" y1="1977.4001" y2="1977.4001"/><text fill="#000000" font-family="sans-serif" font-size="10" lengthAdjust="spacing" textLength="63" x="12" y="1988.6901">BatchNorm1d</text><text fill="#000000" font-family="sans-serif" font-size="10" lengthAdjust="spacing" textLength="217" x="85" y="1988.6901">(512, eps=0.001, momentum=0.1, affine=True)</text><line style="stroke:#A80036;stroke-width:1.0;" x1="80" x2="80" y1="1977.4001" y2="1993.4001"/><rect fill="#FEFECE" filter="url(#f1mo6aksj8mioi)" height="34.4001" style="stroke:#A80036;stroke-width:1.5;" width="139" x="87.5" y="2060"/><text fill="#000000" font-family="sans-serif" font-size="12" lengthAdjust="spacing" textLength="33" x="140.5" y="2073.1481">Logits</text><line style="stroke:#A80036;stroke-width:1.0;" x1="87.5" x2="226.5" y1="2078.4001" y2="2078.4001"/><text fill="#000000" font-family="sans-serif" font-size="10" lengthAdjust="spacing" textLength="29" x="92.5" y="2089.6901">Linear</text><text fill="#000000" font-family="sans-serif" font-size="10" lengthAdjust="spacing" textLength="90" x="131.5" y="2089.6901">(512, num_classes)</text><line style="stroke:#A80036;stroke-width:1.0;" x1="126.5" x2="126.5" y1="2078.4001" y2="2094.4001"/><rect fill="#FEFECE" filter="url(#f1mo6aksj8mioi)" height="18.4001" style="stroke:#A80036;stroke-width:1.5;" width="22" x="146" y="7"/><text fill="#000000" font-family="sans-serif" font-size="12" lengthAdjust="spacing" textLength="8" x="153" y="20.1481">X</text><!--MD5=[d116a8b11ffb78489ea89571cda23d22]
link X to Conv2d_1a--><path codeLine="269" d="M157,34.25 C157,49.38 157,71.57 157,88.62 " fill="none" id="X-to-Conv2d_1a" style="stroke:#A80036;stroke-width:1.0;"/><polygon fill="#A80036" points="157,93.74,161,84.74,157,88.74,153,84.74,157,93.74" style="stroke:#A80036;stroke-width:1.0;"/><!--MD5=[4903609545ba111d272bc781413ea080]
link Conv2d_1a to Conv2d_2a--><path codeLine="270" d="M157,135.06 C157,150.79 157,172.98 157,189.91 " fill="none" id="Conv2d_1a-to-Conv2d_2a" style="stroke:#A80036;stroke-width:1.0;"/><polygon fill="#A80036" points="157,194.98,161,185.98,157,189.98,153,185.98,157,194.98" style="stroke:#A80036;stroke-width:1.0;"/><!--MD5=[c438a0096aac7f1dab4980d01a488b1a]
link Conv2d_2a to Conv2d_2b--><path codeLine="271" d="M157,236.06 C157,251.79 157,273.98 157,290.91 " fill="none" id="Conv2d_2a-to-Conv2d_2b" style="stroke:#A80036;stroke-width:1.0;"/><polygon fill="#A80036" points="157,295.98,161,286.98,157,290.98,153,286.98,157,295.98" style="stroke:#A80036;stroke-width:1.0;"/><!--MD5=[9f325066743729bec4ca689f669074a5]
link Conv2d_2b to Maxpool_3a--><path codeLine="272" d="M157,337.06 C157,352.79 157,374.98 157,391.91 " fill="none" id="Conv2d_2b-to-Maxpool_3a" style="stroke:#A80036;stroke-width:1.0;"/><polygon fill="#A80036" points="157,396.98,161,387.98,157,391.98,153,387.98,157,396.98" style="stroke:#A80036;stroke-width:1.0;"/><!--MD5=[af7657d6d6346707d538f09123d1e41f]
link Maxpool_3a to Conv2d_3b--><path codeLine="273" d="M157,438.06 C157,453.79 157,475.98 157,492.91 " fill="none" id="Maxpool_3a-to-Conv2d_3b" style="stroke:#A80036;stroke-width:1.0;"/><polygon fill="#A80036" points="157,497.98,161,488.98,157,492.98,153,488.98,157,497.98" style="stroke:#A80036;stroke-width:1.0;"/><!--MD5=[653f01d1629acbea282e536181ee97e8]
link Conv2d_3b to Conv2d_4a--><path codeLine="274" d="M157,539.06 C157,554.79 157,576.98 157,593.91 " fill="none" id="Conv2d_3b-to-Conv2d_4a" style="stroke:#A80036;stroke-width:1.0;"/><polygon fill="#A80036" points="157,598.98,161,589.98,157,593.98,153,589.98,157,598.98" style="stroke:#A80036;stroke-width:1.0;"/><!--MD5=[8a864eb7baac79ba1ce18b73e8290c65]
link Conv2d_4a to Conv2d_4b--><path codeLine="275" d="M157,640.06 C157,655.79 157,677.98 157,694.91 " fill="none" id="Conv2d_4a-to-Conv2d_4b" style="stroke:#A80036;stroke-width:1.0;"/><polygon fill="#A80036" points="157,699.98,161,690.98,157,694.98,153,690.98,157,699.98" style="stroke:#A80036;stroke-width:1.0;"/><!--MD5=[149924801b52c6603cb7580ed9839ffb]
link Conv2d_4b to Repeat_1--><path codeLine="276" d="M157,741.09 C157,755.59 157,776.09 157,795.44 " fill="none" id="Conv2d_4b-to-Repeat_1" style="stroke:#A80036;stroke-width:1.0;"/><polygon fill="#A80036" points="157,800.86,161,791.86,157,795.86,153,791.86,157,800.86" style="stroke:#A80036;stroke-width:1.0;"/><!--MD5=[d9380bf6c3510eadd9b260851c0c0922]
link Repeat_1 to Mixed_6a--><path codeLine="277" d="M157,902.13 C157,921 157,941.56 157,956.66 " fill="none" id="Repeat_1-to-Mixed_6a" style="stroke:#A80036;stroke-width:1.0;"/><polygon fill="#A80036" points="157,961.97,161,952.97,157,956.97,153,952.97,157,961.97" style="stroke:#A80036;stroke-width:1.0;"/><!--MD5=[42b43d175d5b9fd0ab21d957750c8e09]
link Mixed_6a to Repeat_2--><path codeLine="278" d="M157,998.24 C157,1011.79 157,1031.82 157,1052.76 " fill="none" id="Mixed_6a-to-Repeat_2" style="stroke:#A80036;stroke-width:1.0;"/><polygon fill="#A80036" points="157,1057.81,161,1048.81,157,1052.81,153,1048.81,157,1057.81" style="stroke:#A80036;stroke-width:1.0;"/><!--MD5=[7fabc603cf9474ba4d4a7382156a3eba]
link Repeat_2 to Mixed_7a--><path codeLine="279" d="M157,1234.28 C157,1254.58 157,1274.45 157,1288.88 " fill="none" id="Repeat_2-to-Mixed_7a" style="stroke:#A80036;stroke-width:1.0;"/><polygon fill="#A80036" points="157,1293.94,161,1284.94,157,1288.94,153,1284.94,157,1293.94" style="stroke:#A80036;stroke-width:1.0;"/><!--MD5=[e4c04d3200422fda0079ae4cff424862]
link Mixed_7a to Repeat_3--><path codeLine="280" d="M157,1330.06 C157,1344.11 157,1364.86 157,1384.51 " fill="none" id="Mixed_7a-to-Repeat_3" style="stroke:#A80036;stroke-width:1.0;"/><polygon fill="#A80036" points="157,1389.75,161,1380.75,157,1384.75,153,1380.75,157,1389.75" style="stroke:#A80036;stroke-width:1.0;"/><!--MD5=[4e4b04a783079d49f9f28bc785d9c3a9]
link Repeat_3 to Block8--><path codeLine="281" d="M157,1491.01 C157,1509.77 157,1530.33 157,1545.84 " fill="none" id="Repeat_3-to-Block8" style="stroke:#A80036;stroke-width:1.0;"/><polygon fill="#A80036" points="157,1550.9,161,1541.9,157,1545.9,153,1541.9,157,1550.9" style="stroke:#A80036;stroke-width:1.0;"/><!--MD5=[9383007f88682646eb3c4eba618a45ee]
link Block8 to Avgpool_1a--><path codeLine="282" d="M157,1592.06 C157,1607.79 157,1629.98 157,1646.91 " fill="none" id="Block8-to-Avgpool_1a" style="stroke:#A80036;stroke-width:1.0;"/><polygon fill="#A80036" points="157,1651.98,161,1642.98,157,1646.98,153,1642.98,157,1651.98" style="stroke:#A80036;stroke-width:1.0;"/><!--MD5=[b3e3fee62f0d5f337fdf0d1f09945b23]
link Avgpool_1a to Dropout--><path codeLine="283" d="M157,1693.06 C157,1708.79 157,1730.98 157,1747.91 " fill="none" id="Avgpool_1a-to-Dropout" style="stroke:#A80036;stroke-width:1.0;"/><polygon fill="#A80036" points="157,1752.98,161,1743.98,157,1747.98,153,1743.98,157,1752.98" style="stroke:#A80036;stroke-width:1.0;"/><!--MD5=[83c150bb074a305bea6d8fcc97934847]
link Dropout to FC--><path codeLine="284" d="M157,1794.06 C157,1809.79 157,1831.98 157,1848.91 " fill="none" id="Dropout-to-FC" style="stroke:#A80036;stroke-width:1.0;"/><polygon fill="#A80036" points="157,1853.98,161,1844.98,157,1848.98,153,1844.98,157,1853.98" style="stroke:#A80036;stroke-width:1.0;"/><!--MD5=[6d5f9adcaeed79cecd9ba69383e04211]
link FC to BN--><path codeLine="285" d="M157,1895.06 C157,1910.79 157,1932.98 157,1949.91 " fill="none" id="FC-to-BN" style="stroke:#A80036;stroke-width:1.0;"/><polygon fill="#A80036" points="157,1954.98,161,1945.98,157,1949.98,153,1945.98,157,1954.98" style="stroke:#A80036;stroke-width:1.0;"/><!--MD5=[ef8532dd0a872137e08d4c473f4994c1]
link BN to Logits--><path codeLine="286" d="M157,1996.06 C157,2011.79 157,2033.98 157,2050.91 " fill="none" id="BN-to-Logits" style="stroke:#A80036;stroke-width:1.0;"/><polygon fill="#A80036" points="157,2055.98,161,2046.98,157,2050.98,153,2046.98,157,2055.98" style="stroke:#A80036;stroke-width:1.0;"/><!--MD5=[7c8797cb6d73ac11f3e71f97f3deffc3]
@startuml
map Conv2d_1a {
    BasicConv2d => (3, 32, kernel_size=3, stride=2)
}
map Conv2d_2a {
    BasicConv2d => (32, 32, kernel_size=3, stride=1)
}
map Conv2d_2b {
    BasicConv2d => (32, 64, kernel_size=3, stride=1, padding=1)
}
map Maxpool_3a {
    MaxPool2d => (3, stride=2)
}
map Conv2d_3b {
    BasicConv2d => (64, 80, kernel_size=1, stride=1)
}
map Conv2d_4a {
    BasicConv2d => (64, 80, kernel_size=1, stride=1)
}
map Conv2d_4b {
    BasicConv2d => (192, 256, kernel_size=3, stride=2)
}
map Repeat_1 {
    Block35_0 => (scale=0.17)
    Block35_1 => (scale=0.17)
    Block35_2 => (scale=0.17)
    Block35_3 => (scale=0.17)
    Block35_4 => (scale=0.17)
}
map Mixed_6a {
    Mixed_6a
}
map Repeat_2 {
    Block17_0 => (scale=0.10)
    Block17_1 => (scale=0.10)
    Block17_2 => (scale=0.10)
    Block17_3 => (scale=0.10)
    Block17_4 => (scale=0.10)
    Block17_5 => (scale=0.10)
    Block17_6 => (scale=0.10)
    Block17_7 => (scale=0.10)
    Block17_8 => (scale=0.10)
    Block17_9 => (scale=0.10)
}
map Mixed_7a {
    Mixed_7a
}
map Repeat_3 {
    Block8_0 => (scale=0.20)
    Block8_1 => (scale=0.20)
    Block8_2 => (scale=0.20)
    Block8_3 => (scale=0.20)
    Block8_4 => (scale=0.20)
}
map Block8 {
    Block8 => (noReLU)
}
map Avgpool_1a {
    AdaptiveAvgPool2d => (1)
}
map Dropout {
    Dropout => (dropout_prob)
}
map FC {
    Linear => (1792, 512, bias=False)
}
map BN {
    BatchNorm1d => (512, eps=0.001, momentum=0.1, affine=True)
}
map Logits {
    Linear => (512, num_classes)
}
map X {

}
X- ->Conv2d_1a
Conv2d_1a- ->Conv2d_2a
Conv2d_2a- ->Conv2d_2b
Conv2d_2b- ->Maxpool_3a
Maxpool_3a- ->Conv2d_3b
Conv2d_3b- ->Conv2d_4a
Conv2d_4a- ->Conv2d_4b
Conv2d_4b- ->Repeat_1
Repeat_1- ->Mixed_6a
Mixed_6a- ->Repeat_2
Repeat_2- ->Mixed_7a
Mixed_7a- ->Repeat_3
Repeat_3- ->Block8
Block8- ->Avgpool_1a
Avgpool_1a- ->Dropout
Dropout- ->FC
FC- ->BN
BN- ->Logits
@enduml

PlantUML version 1.2021.16(Thu Dec 09 01:25:22 CST 2021)
(GPL source distribution)
Java Runtime: OpenJDK Runtime Environment
JVM: OpenJDK 64-Bit Server VM
Default Encoding: UTF-8
Language: en
Country: US
--></g></svg>