<?xml version="1.0" encoding="UTF-8" standalone="no"?><svg xmlns="http://www.w3.org/2000/svg" xmlns:xlink="http://www.w3.org/1999/xlink" contentScriptType="application/ecmascript" contentStyleType="text/css" height="604px" preserveAspectRatio="none" style="width:1079px;height:604px;background:#FFFFFF;" version="1.1" viewBox="0 0 1079 604" width="1079px" zoomAndPan="magnify"><defs><filter height="300%" id="f3190hgeoe0lq" width="300%" x="-1" y="-1"><feGaussianBlur result="blurOut" stdDeviation="2.0"/><feColorMatrix in="blurOut" result="blurOut2" type="matrix" values="0 0 0 0 0 0 0 0 0 0 0 0 0 0 0 0 0 0 .4 0"/><feOffset dx="4.0" dy="4.0" in="blurOut2" result="blurOut3"/><feBlend in="SourceGraphic" in2="blurOut3" mode="normal"/></filter></defs><g><rect fill="#FEFECE" filter="url(#f3190hgeoe0lq)" height="34.4001" style="stroke:#A80036;stroke-width:1.5;" width="236" x="7" y="113"/><text fill="#000000" font-family="sans-serif" font-size="12" lengthAdjust="spacing" textLength="46" x="102" y="126.1481">Branch0</text><line style="stroke:#A80036;stroke-width:1.0;" x1="7" x2="243" y1="131.4001" y2="131.4001"/><text fill="#000000" font-family="sans-serif" font-size="10" lengthAdjust="spacing" textLength="61" x="12" y="142.6901">BasicConv2d</text><text fill="#000000" font-family="sans-serif" font-size="10" lengthAdjust="spacing" textLength="155" x="83" y="142.6901">(256, 32, kernel_size=1, stride=1)</text><line style="stroke:#A80036;stroke-width:1.0;" x1="78" x2="78" y1="131.4001" y2="147.4001"/><rect fill="#FEFECE" filter="url(#f3190hgeoe0lq)" height="50.4001" style="stroke:#A80036;stroke-width:1.5;" width="298" x="294" y="105.5"/><text fill="#000000" font-family="sans-serif" font-size="12" lengthAdjust="spacing" textLength="46" x="420" y="118.6481">Branch1</text><line style="stroke:#A80036;stroke-width:1.0;" x1="294" x2="592" y1="123.9001" y2="123.9001"/><text fill="#000000" font-family="sans-serif" font-size="10" lengthAdjust="spacing" textLength="73" x="299" y="135.1901">BasicConv2d_0</text><text fill="#000000" font-family="sans-serif" font-size="10" lengthAdjust="spacing" textLength="155" x="382" y="135.1901">(256, 32, kernel_size=1, stride=1)</text><line style="stroke:#A80036;stroke-width:1.0;" x1="377" x2="377" y1="123.9001" y2="139.9001"/><line style="stroke:#A80036;stroke-width:1.0;" x1="294" x2="592" y1="139.9001" y2="139.9001"/><text fill="#000000" font-family="sans-serif" font-size="10" lengthAdjust="spacing" textLength="73" x="299" y="151.1901">BasicConv2d_1</text><text fill="#000000" font-family="sans-serif" font-size="10" lengthAdjust="spacing" textLength="205" x="382" y="151.1901">(32, 32, kernel_size=3, stride=1, padding=1)</text><line style="stroke:#A80036;stroke-width:1.0;" x1="377" x2="377" y1="139.9001" y2="155.9001"/><rect fill="#FEFECE" filter="url(#f3190hgeoe0lq)" height="66.4001" style="stroke:#A80036;stroke-width:1.5;" width="298" x="643" y="98"/><text fill="#000000" font-family="sans-serif" font-size="12" lengthAdjust="spacing" textLength="46" x="769" y="111.1481">Branch2</text><line style="stroke:#A80036;stroke-width:1.0;" x1="643" x2="941" y1="116.4001" y2="116.4001"/><text fill="#000000" font-family="sans-serif" font-size="10" lengthAdjust="spacing" textLength="73" x="648" y="127.6901">BasicConv2d_0</text><text fill="#000000" font-family="sans-serif" font-size="10" lengthAdjust="spacing" textLength="155" x="731" y="127.6901">(256, 32, kernel_size=1, stride=1)</text><line style="stroke:#A80036;stroke-width:1.0;" x1="726" x2="726" y1="116.4001" y2="132.4001"/><line style="stroke:#A80036;stroke-width:1.0;" x1="643" x2="941" y1="132.4001" y2="132.4001"/><text fill="#000000" font-family="sans-serif" font-size="10" lengthAdjust="spacing" textLength="73" x="648" y="143.6901">BasicConv2d_1</text><text fill="#000000" font-family="sans-serif" font-size="10" lengthAdjust="spacing" textLength="205" x="731" y="143.6901">(32, 32, kernel_size=3, stride=1, padding=1)</text><line style="stroke:#A80036;stroke-width:1.0;" x1="726" x2="726" y1="132.4001" y2="148.4001"/><line style="stroke:#A80036;stroke-width:1.0;" x1="643" x2="941" y1="148.4001" y2="148.4001"/><text fill="#000000" font-family="sans-serif" font-size="10" lengthAdjust="spacing" textLength="73" x="648" y="159.6901">BasicConv2d_2</text><text fill="#000000" font-family="sans-serif" font-size="10" lengthAdjust="spacing" textLength="205" x="731" y="159.6901">(32, 32, kernel_size=3, stride=1, padding=1)</text><line style="stroke:#A80036;stroke-width:1.0;" x1="726" x2="726" y1="148.4001" y2="164.4001"/><rect fill="#FEFECE" filter="url(#f3190hgeoe0lq)" height="82.4001" style="stroke:#A80036;stroke-width:1.5;" width="96" x="620" y="325"/><text fill="#000000" font-family="sans-serif" font-size="12" lengthAdjust="spacing" textLength="43" x="646.5" y="338.1481">Conv2d</text><line style="stroke:#A80036;stroke-width:1.0;" x1="620" x2="716" y1="343.4001" y2="343.4001"/><text fill="#000000" font-family="sans-serif" font-size="10" lengthAdjust="spacing" textLength="51" x="628.5" y="354.6901">in_channel</text><text fill="#000000" font-family="sans-serif" font-size="10" lengthAdjust="spacing" textLength="12" x="693" y="354.6901">96</text><line style="stroke:#A80036;stroke-width:1.0;" x1="688" x2="688" y1="343.4001" y2="359.4001"/><line style="stroke:#A80036;stroke-width:1.0;" x1="620" x2="716" y1="359.4001" y2="359.4001"/><text fill="#000000" font-family="sans-serif" font-size="10" lengthAdjust="spacing" textLength="58" x="625" y="370.6901">out_channel</text><text fill="#000000" font-family="sans-serif" font-size="10" lengthAdjust="spacing" textLength="18" x="693" y="370.6901">256</text><line style="stroke:#A80036;stroke-width:1.0;" x1="688" x2="688" y1="359.4001" y2="375.4001"/><line style="stroke:#A80036;stroke-width:1.0;" x1="620" x2="716" y1="375.4001" y2="375.4001"/><text fill="#000000" font-family="sans-serif" font-size="10" lengthAdjust="spacing" textLength="52" x="628" y="386.6901">kernel_size</text><text fill="#000000" font-family="sans-serif" font-size="10" lengthAdjust="spacing" textLength="6" x="693" y="386.6901">1</text><line style="stroke:#A80036;stroke-width:1.0;" x1="688" x2="688" y1="375.4001" y2="391.4001"/><line style="stroke:#A80036;stroke-width:1.0;" x1="620" x2="716" y1="391.4001" y2="391.4001"/><text fill="#000000" font-family="sans-serif" font-size="10" lengthAdjust="spacing" textLength="25" x="641.5" y="402.6901">stride</text><text fill="#000000" font-family="sans-serif" font-size="10" lengthAdjust="spacing" textLength="6" x="693" y="402.6901">1</text><line style="stroke:#A80036;stroke-width:1.0;" x1="688" x2="688" y1="391.4001" y2="407.4001"/><rect fill="#FEFECE" filter="url(#f3190hgeoe0lq)" height="18.4001" style="stroke:#A80036;stroke-width:1.5;" width="46" x="699" y="572"/><text fill="#000000" font-family="sans-serif" font-size="12" lengthAdjust="spacing" textLength="32" x="706" y="585.1481">ReLU</text><rect fill="#FEFECE" filter="url(#f3190hgeoe0lq)" height="18.4001" style="stroke:#A80036;stroke-width:1.5;" width="33" x="538.5" y="234"/><text fill="#000000" font-family="sans-serif" font-size="12" lengthAdjust="spacing" textLength="19" x="545.5" y="247.1481">Cat</text><rect fill="#FEFECE" filter="url(#f3190hgeoe0lq)" height="18.4001" style="stroke:#A80036;stroke-width:1.5;" width="36" x="704" y="476"/><text fill="#000000" font-family="sans-serif" font-size="12" lengthAdjust="spacing" textLength="22" x="711" y="489.1481">Add</text><rect fill="#FEFECE" filter="url(#f3190hgeoe0lq)" height="18.4001" style="stroke:#A80036;stroke-width:1.5;" width="22" x="606" y="7"/><text fill="#000000" font-family="sans-serif" font-size="12" lengthAdjust="spacing" textLength="8" x="613" y="20.1481">X</text><!--MD5=[adb164c456936209887effae80d07d84]
link X to Branch0--><path codeLine="49" d="M589.81,22.81 C531.01,35.41 387.7,66.36 268,94 C249.24,98.33 229.12,103.11 210.07,107.69 " fill="none" id="X-to-Branch0" style="stroke:#A80036;stroke-width:1.0;"/><polygon fill="#A80036" points="204.73,108.97,214.417,110.7484,209.5906,107.7977,212.5413,102.9714,204.73,108.97" style="stroke:#A80036;stroke-width:1.0;"/><!--MD5=[6dce2fc1faddc54ef0a3cfc9f7a44ff5]
link X to Branch1--><path codeLine="50" d="M590.19,34.18 C563.46,51.31 521.86,77.97 489.7,98.58 " fill="none" id="X-to-Branch1" style="stroke:#A80036;stroke-width:1.0;"/><polygon fill="#A80036" points="485.42,101.32,495.1559,99.8329,489.6301,98.6227,490.8403,93.0968,485.42,101.32" style="stroke:#A80036;stroke-width:1.0;"/><!--MD5=[971e7785cd994a223b8f381cb3efafb7]
link X to Branch2--><path codeLine="51" d="M643.96,34.18 C667.72,49.32 703.16,71.9 733.41,91.17 " fill="none" id="X-to-Branch2" style="stroke:#A80036;stroke-width:1.0;"/><polygon fill="#A80036" points="737.83,93.99,732.3774,85.7882,733.6093,91.3093,728.0883,92.5413,737.83,93.99" style="stroke:#A80036;stroke-width:1.0;"/><!--MD5=[8448f3f7d6e62426576d1baa84900e0a]
link X to Add--><path codeLine="52" d="M644.21,18.73 C719.26,24.12 926.31,43.39 967,94 C1072.56,225.3 838.41,404.65 752.22,464.02 " fill="none" id="X-to-Add" style="stroke:#A80036;stroke-width:1.0;"/><polygon fill="#A80036" points="747.99,466.92,757.6754,465.1331,752.1148,464.094,753.1538,458.5334,747.99,466.92" style="stroke:#A80036;stroke-width:1.0;"/><!--MD5=[576da4c999da0950018a46dc7d2f93ff]
link Branch0 to Cat--><path codeLine="53" d="M200.39,150.05 C295.47,174.7 454.7,215.99 522.67,233.62 " fill="none" id="Branch0-to-Cat" style="stroke:#A80036;stroke-width:1.0;"/><polygon fill="#A80036" points="527.79,234.95,520.0882,228.8114,522.9513,233.6902,518.0725,236.5534,527.79,234.95" style="stroke:#A80036;stroke-width:1.0;"/><!--MD5=[41b66985f37a050a4ba8a8a742512a66]
link Branch1 to Cat--><path codeLine="54" d="M470.4,157.78 C489.91,177.2 515.74,202.92 533.71,220.8 " fill="none" id="Branch1-to-Cat" style="stroke:#A80036;stroke-width:1.0;"/><polygon fill="#A80036" points="537.64,224.72,534.0859,215.5348,534.0973,221.1916,528.4405,221.203,537.64,224.72" style="stroke:#A80036;stroke-width:1.0;"/><!--MD5=[1b9172bd8f7c241f07ad25900d580a96]
link Branch2 to Cat--><path codeLine="55" d="M718.63,165.02 C674.45,185.8 620.42,211.22 586.85,227.01 " fill="none" id="Branch2-to-Cat" style="stroke:#A80036;stroke-width:1.0;"/><polygon fill="#A80036" points="582.05,229.27,591.8967,229.0616,586.5751,227.1431,588.4936,221.8215,582.05,229.27" style="stroke:#A80036;stroke-width:1.0;"/><!--MD5=[b2191eab50d43b79d2b08b713596042c]
link Cat to Conv2d--><path codeLine="56" d="M571.19,261.05 C585.04,275.63 605.62,297.31 624.25,316.93 " fill="none" id="Cat-to-Conv2d" style="stroke:#A80036;stroke-width:1.0;"/><polygon fill="#A80036" points="627.95,320.82,624.657,311.538,624.5085,317.1929,618.8536,317.0444,627.95,320.82" style="stroke:#A80036;stroke-width:1.0;"/><!--MD5=[6e4a1d26cf790fbec3cd00d3ad0fadd8]
link Conv2d to Add--><path codeLine="57" d="M687.19,407.29 C695.65,425.94 705.23,447.05 712.2,462.4 " fill="none" id="Conv2d-to-Add" style="stroke:#A80036;stroke-width:1.0;"/><polygon fill="#A80036" points="714.27,466.97,714.1872,457.1215,712.201,462.4182,706.9043,460.4319,714.27,466.97" style="stroke:#A80036;stroke-width:1.0;"/><!--MD5=[496da464913a9c6a83bee3f96b6b5ff2]
link Add to ReLU--><path codeLine="58" d="M722,503.24 C722,518.48 722,540.81 722,557.46 " fill="none" id="Add-to-ReLU" style="stroke:#A80036;stroke-width:1.0;"/><polygon fill="#A80036" points="722,562.87,726,553.87,722,557.87,718,553.87,722,562.87" style="stroke:#A80036;stroke-width:1.0;"/><!--MD5=[70d3f1d815359c3fee274522022891a4]
@startuml
map Branch0 {
    BasicConv2d => (256, 32, kernel_size=1, stride=1)
}
map Branch1 {
    BasicConv2d_0 => (256, 32, kernel_size=1, stride=1)
    BasicConv2d_1 => (32, 32, kernel_size=3, stride=1, padding=1)
}
map Branch2 {
    BasicConv2d_0 => (256, 32, kernel_size=1, stride=1)
    BasicConv2d_1 => (32, 32, kernel_size=3, stride=1, padding=1)
    BasicConv2d_2 => (32, 32, kernel_size=3, stride=1, padding=1)
}
map Conv2d {
    in_channel => 96
    out_channel => 256
    kernel_size => 1
    stride =>1
}
map ReLU {
    
}
map Cat {

}
map Add {

}
map X {

}
X- ->Branch0
X- ->Branch1
X- ->Branch2
X- ->Add
Branch0- ->Cat
Branch1- ->Cat
Branch2- ->Cat
Cat- ->Conv2d
Conv2d- ->Add
Add- ->ReLU
@enduml

PlantUML version 1.2021.16(Thu Dec 09 01:25:22 CST 2021)
(GPL source distribution)
Java Runtime: OpenJDK Runtime Environment
JVM: OpenJDK 64-Bit Server VM
Default Encoding: UTF-8
Language: en
Country: US
--></g></svg>