<?xml version="1.0" encoding="UTF-8" standalone="no"?><svg xmlns="http://www.w3.org/2000/svg" xmlns:xlink="http://www.w3.org/1999/xlink" contentScriptType="application/ecmascript" contentStyleType="text/css" height="604px" preserveAspectRatio="none" style="width:761px;height:604px;background:#FFFFFF;" version="1.1" viewBox="0 0 761 604" width="761px" zoomAndPan="magnify"><defs><filter height="300%" id="f1jmjobfr8ylhy" width="300%" x="-1" y="-1"><feGaussianBlur result="blurOut" stdDeviation="2.0"/><feColorMatrix in="blurOut" result="blurOut2" type="matrix" values="0 0 0 0 0 0 0 0 0 0 0 0 0 0 0 0 0 0 .4 0"/><feOffset dx="4.0" dy="4.0" in="blurOut2" result="blurOut3"/><feBlend in="SourceGraphic" in2="blurOut3" mode="normal"/></filter></defs><g><rect fill="#FEFECE" filter="url(#f1jmjobfr8ylhy)" height="34.4001" style="stroke:#A80036;stroke-width:1.5;" width="242" x="7" y="113"/><text fill="#000000" font-family="sans-serif" font-size="12" lengthAdjust="spacing" textLength="46" x="105" y="126.1481">Branch0</text><line style="stroke:#A80036;stroke-width:1.0;" x1="7" x2="249" y1="131.4001" y2="131.4001"/><text fill="#000000" font-family="sans-serif" font-size="10" lengthAdjust="spacing" textLength="61" x="12" y="142.6901">BasicConv2d</text><text fill="#000000" font-family="sans-serif" font-size="10" lengthAdjust="spacing" textLength="161" x="83" y="142.6901">(896, 128, kernel_size=1, stride=1)</text><line style="stroke:#A80036;stroke-width:1.0;" x1="78" x2="78" y1="131.4001" y2="147.4001"/><rect fill="#FEFECE" filter="url(#f1jmjobfr8ylhy)" height="66.4001" style="stroke:#A80036;stroke-width:1.5;" width="346" x="300" y="98"/><text fill="#000000" font-family="sans-serif" font-size="12" lengthAdjust="spacing" textLength="46" x="450" y="111.1481">Branch1</text><line style="stroke:#A80036;stroke-width:1.0;" x1="300" x2="646" y1="116.4001" y2="116.4001"/><text fill="#000000" font-family="sans-serif" font-size="10" lengthAdjust="spacing" textLength="73" x="305" y="127.6901">BasicConv2d_0</text><text fill="#000000" font-family="sans-serif" font-size="10" lengthAdjust="spacing" textLength="161" x="388" y="127.6901">(896, 128, kernel_size=1, stride=1)</text><line style="stroke:#A80036;stroke-width:1.0;" x1="383" x2="383" y1="116.4001" y2="132.4001"/><line style="stroke:#A80036;stroke-width:1.0;" x1="300" x2="646" y1="132.4001" y2="132.4001"/><text fill="#000000" font-family="sans-serif" font-size="10" lengthAdjust="spacing" textLength="73" x="305" y="143.6901">BasicConv2d_1</text><text fill="#000000" font-family="sans-serif" font-size="10" lengthAdjust="spacing" textLength="253" x="388" y="143.6901">(128, 128, kernel_size=(1, 7), stride=1, padding=(0, 3))</text><line style="stroke:#A80036;stroke-width:1.0;" x1="383" x2="383" y1="132.4001" y2="148.4001"/><line style="stroke:#A80036;stroke-width:1.0;" x1="300" x2="646" y1="148.4001" y2="148.4001"/><text fill="#000000" font-family="sans-serif" font-size="10" lengthAdjust="spacing" textLength="73" x="305" y="159.6901">BasicConv2d_2</text><text fill="#000000" font-family="sans-serif" font-size="10" lengthAdjust="spacing" textLength="253" x="388" y="159.6901">(128, 128, kernel_size=(7, 1), stride=1, padding=(3, 0))</text><line style="stroke:#A80036;stroke-width:1.0;" x1="383" x2="383" y1="148.4001" y2="164.4001"/><rect fill="#FEFECE" filter="url(#f1jmjobfr8ylhy)" height="82.4001" style="stroke:#A80036;stroke-width:1.5;" width="96" x="488" y="325"/><text fill="#000000" font-family="sans-serif" font-size="12" lengthAdjust="spacing" textLength="43" x="514.5" y="338.1481">Conv2d</text><line style="stroke:#A80036;stroke-width:1.0;" x1="488" x2="584" y1="343.4001" y2="343.4001"/><text fill="#000000" font-family="sans-serif" font-size="10" lengthAdjust="spacing" textLength="52" x="496" y="354.6901">in_features</text><text fill="#000000" font-family="sans-serif" font-size="10" lengthAdjust="spacing" textLength="18" x="561" y="354.6901">256</text><line style="stroke:#A80036;stroke-width:1.0;" x1="556" x2="556" y1="343.4001" y2="359.4001"/><line style="stroke:#A80036;stroke-width:1.0;" x1="488" x2="584" y1="359.4001" y2="359.4001"/><text fill="#000000" font-family="sans-serif" font-size="10" lengthAdjust="spacing" textLength="58" x="493" y="370.6901">out_channel</text><text fill="#000000" font-family="sans-serif" font-size="10" lengthAdjust="spacing" textLength="18" x="561" y="370.6901">896</text><line style="stroke:#A80036;stroke-width:1.0;" x1="556" x2="556" y1="359.4001" y2="375.4001"/><line style="stroke:#A80036;stroke-width:1.0;" x1="488" x2="584" y1="375.4001" y2="375.4001"/><text fill="#000000" font-family="sans-serif" font-size="10" lengthAdjust="spacing" textLength="52" x="496" y="386.6901">kernel_size</text><text fill="#000000" font-family="sans-serif" font-size="10" lengthAdjust="spacing" textLength="6" x="561" y="386.6901">1</text><line style="stroke:#A80036;stroke-width:1.0;" x1="556" x2="556" y1="375.4001" y2="391.4001"/><line style="stroke:#A80036;stroke-width:1.0;" x1="488" x2="584" y1="391.4001" y2="391.4001"/><text fill="#000000" font-family="sans-serif" font-size="10" lengthAdjust="spacing" textLength="25" x="509.5" y="402.6901">stride</text><text fill="#000000" font-family="sans-serif" font-size="10" lengthAdjust="spacing" textLength="6" x="561" y="402.6901">1</text><line style="stroke:#A80036;stroke-width:1.0;" x1="556" x2="556" y1="391.4001" y2="407.4001"/><rect fill="#FEFECE" filter="url(#f1jmjobfr8ylhy)" height="18.4001" style="stroke:#A80036;stroke-width:1.5;" width="46" x="567" y="572"/><text fill="#000000" font-family="sans-serif" font-size="12" lengthAdjust="spacing" textLength="32" x="574" y="585.1481">ReLU</text><rect fill="#FEFECE" filter="url(#f1jmjobfr8ylhy)" height="18.4001" style="stroke:#A80036;stroke-width:1.5;" width="22" x="462" y="7"/><text fill="#000000" font-family="sans-serif" font-size="12" lengthAdjust="spacing" textLength="8" x="469" y="20.1481">X</text><rect fill="#FEFECE" filter="url(#f1jmjobfr8ylhy)" height="18.4001" style="stroke:#A80036;stroke-width:1.5;" width="33" x="456.5" y="234"/><text fill="#000000" font-family="sans-serif" font-size="12" lengthAdjust="spacing" textLength="19" x="463.5" y="247.1481">Cat</text><rect fill="#FEFECE" filter="url(#f1jmjobfr8ylhy)" height="18.4001" style="stroke:#A80036;stroke-width:1.5;" width="36" x="572" y="476"/><text fill="#000000" font-family="sans-serif" font-size="12" lengthAdjust="spacing" textLength="22" x="579" y="489.1481">Add</text><!--MD5=[adb164c456936209887effae80d07d84]
link X to Branch0--><path codeLine="88" d="M445.93,25.75 C391.99,43.18 269.77,82.68 193.55,107.31 " fill="none" id="X-to-Branch0" style="stroke:#A80036;stroke-width:1.0;"/><polygon fill="#A80036" points="188.6,108.91,198.395,109.9383,193.3561,107.3675,195.927,102.3286,188.6,108.91" style="stroke:#A80036;stroke-width:1.0;"/><!--MD5=[6dce2fc1faddc54ef0a3cfc9f7a44ff5]
link X to Branch1--><path codeLine="89" d="M473,34.42 C473,48.87 473,69.96 473,88.52 " fill="none" id="X-to-Branch1" style="stroke:#A80036;stroke-width:1.0;"/><polygon fill="#A80036" points="473,93.68,477,84.68,473,88.68,469,84.68,473,93.68" style="stroke:#A80036;stroke-width:1.0;"/><!--MD5=[8448f3f7d6e62426576d1baa84900e0a]
link X to Add--><path codeLine="90" d="M500.04,18.31 C544.71,22.11 632.84,36.86 672,94 C754.12,213.83 646.38,399.44 604.97,462.32 " fill="none" id="X-to-Add" style="stroke:#A80036;stroke-width:1.0;"/><polygon fill="#A80036" points="602.11,466.64,610.4222,461.3572,604.8769,462.4754,603.7587,456.9301,602.11,466.64" style="stroke:#A80036;stroke-width:1.0;"/><!--MD5=[576da4c999da0950018a46dc7d2f93ff]
link Branch0 to Cat--><path codeLine="91" d="M188.49,150.05 C262.02,173.82 383.4,213.04 440.9,231.62 " fill="none" id="Branch0-to-Cat" style="stroke:#A80036;stroke-width:1.0;"/><polygon fill="#A80036" points="445.92,233.25,438.5751,226.6885,441.1597,231.7204,436.1278,234.305,445.92,233.25" style="stroke:#A80036;stroke-width:1.0;"/><!--MD5=[41b66985f37a050a4ba8a8a742512a66]
link Branch1 to Cat--><path codeLine="92" d="M473,165.17 C473,182.97 473,204.14 473,219.75 " fill="none" id="Branch1-to-Cat" style="stroke:#A80036;stroke-width:1.0;"/><polygon fill="#A80036" points="473,224.81,477,215.81,473,219.81,469,215.81,473,224.81" style="stroke:#A80036;stroke-width:1.0;"/><!--MD5=[b2191eab50d43b79d2b08b713596042c]
link Cat to Conv2d--><path codeLine="93" d="M482.03,261.05 C489.62,275.39 500.84,296.59 511.09,315.95 " fill="none" id="Cat-to-Conv2d" style="stroke:#A80036;stroke-width:1.0;"/><polygon fill="#A80036" points="513.67,320.82,512.9971,310.9942,511.3319,316.4004,505.9257,314.7352,513.67,320.82" style="stroke:#A80036;stroke-width:1.0;"/><!--MD5=[6e4a1d26cf790fbec3cd00d3ad0fadd8]
link Conv2d to Add--><path codeLine="94" d="M555.19,407.29 C563.65,425.94 573.23,447.05 580.2,462.4 " fill="none" id="Conv2d-to-Add" style="stroke:#A80036;stroke-width:1.0;"/><polygon fill="#A80036" points="582.27,466.97,582.1872,457.1215,580.201,462.4182,574.9043,460.4319,582.27,466.97" style="stroke:#A80036;stroke-width:1.0;"/><!--MD5=[496da464913a9c6a83bee3f96b6b5ff2]
link Add to ReLU--><path codeLine="95" d="M590,503.24 C590,518.48 590,540.81 590,557.46 " fill="none" id="Add-to-ReLU" style="stroke:#A80036;stroke-width:1.0;"/><polygon fill="#A80036" points="590,562.87,594,553.87,590,557.87,586,553.87,590,562.87" style="stroke:#A80036;stroke-width:1.0;"/><!--MD5=[1e7cf48233ee8f703a840d89ebdf7141]
@startuml
map Branch0 {
    BasicConv2d => (896, 128, kernel_size=1, stride=1)
}
map Branch1 {
    BasicConv2d_0 => (896, 128, kernel_size=1, stride=1)
    BasicConv2d_1 => (128, 128, kernel_size=(1, 7), stride=1, padding=(0, 3))
    BasicConv2d_2 => (128, 128, kernel_size=(7, 1), stride=1, padding=(3, 0))
}
map Conv2d {
    in_features => 256
    out_channel => 896
    kernel_size => 1
    stride => 1
}
map ReLU {
    
}
map X {

}
map Cat {

}
map Add {

}
X- ->Branch0
X- ->Branch1
X- ->Add
Branch0- ->Cat
Branch1- ->Cat
Cat- ->Conv2d
Conv2d- ->Add
Add- ->ReLU
@enduml

PlantUML version 1.2021.16(Thu Dec 09 01:25:22 CST 2021)
(GPL source distribution)
Java Runtime: OpenJDK Runtime Environment
JVM: OpenJDK 64-Bit Server VM
Default Encoding: UTF-8
Language: en
Country: US
--></g></svg>