<?xml version="1.0" encoding="UTF-8" standalone="no"?><svg xmlns="http://www.w3.org/2000/svg" xmlns:xlink="http://www.w3.org/1999/xlink" contentScriptType="application/ecmascript" contentStyleType="text/css" height="604px" preserveAspectRatio="none" style="width:767px;height:604px;background:#FFFFFF;" version="1.1" viewBox="0 0 767 604" width="767px" zoomAndPan="magnify"><defs><filter height="300%" id="f4kbq4epe5e42" width="300%" x="-1" y="-1"><feGaussianBlur result="blurOut" stdDeviation="2.0"/><feColorMatrix in="blurOut" result="blurOut2" type="matrix" values="0 0 0 0 0 0 0 0 0 0 0 0 0 0 0 0 0 0 .4 0"/><feOffset dx="4.0" dy="4.0" in="blurOut2" result="blurOut3"/><feBlend in="SourceGraphic" in2="blurOut3" mode="normal"/></filter></defs><g><rect fill="#FEFECE" filter="url(#f4kbq4epe5e42)" height="34.4001" style="stroke:#A80036;stroke-width:1.5;" width="248" x="7" y="113"/><text fill="#000000" font-family="sans-serif" font-size="12" lengthAdjust="spacing" textLength="46" x="108" y="126.1481">Branch0</text><line style="stroke:#A80036;stroke-width:1.0;" x1="7" x2="255" y1="131.4001" y2="131.4001"/><text fill="#000000" font-family="sans-serif" font-size="10" lengthAdjust="spacing" textLength="61" x="12" y="142.6901">BasicConv2d</text><text fill="#000000" font-family="sans-serif" font-size="10" lengthAdjust="spacing" textLength="167" x="83" y="142.6901">(1792, 192, kernel_size=1, stride=1)</text><line style="stroke:#A80036;stroke-width:1.0;" x1="78" x2="78" y1="131.4001" y2="147.4001"/><rect fill="#FEFECE" filter="url(#f4kbq4epe5e42)" height="66.4001" style="stroke:#A80036;stroke-width:1.5;" width="346" x="306" y="98"/><text fill="#000000" font-family="sans-serif" font-size="12" lengthAdjust="spacing" textLength="46" x="456" y="111.1481">Branch1</text><line style="stroke:#A80036;stroke-width:1.0;" x1="306" x2="652" y1="116.4001" y2="116.4001"/><text fill="#000000" font-family="sans-serif" font-size="10" lengthAdjust="spacing" textLength="73" x="311" y="127.6901">BasicConv2d_0</text><text fill="#000000" font-family="sans-serif" font-size="10" lengthAdjust="spacing" textLength="167" x="394" y="127.6901">(1792, 192, kernel_size=1, stride=1)</text><line style="stroke:#A80036;stroke-width:1.0;" x1="389" x2="389" y1="116.4001" y2="132.4001"/><line style="stroke:#A80036;stroke-width:1.0;" x1="306" x2="652" y1="132.4001" y2="132.4001"/><text fill="#000000" font-family="sans-serif" font-size="10" lengthAdjust="spacing" textLength="73" x="311" y="143.6901">BasicConv2d_1</text><text fill="#000000" font-family="sans-serif" font-size="10" lengthAdjust="spacing" textLength="253" x="394" y="143.6901">(192, 192, kernel_size=(1, 3), stride=1, padding=(0, 1))</text><line style="stroke:#A80036;stroke-width:1.0;" x1="389" x2="389" y1="132.4001" y2="148.4001"/><line style="stroke:#A80036;stroke-width:1.0;" x1="306" x2="652" y1="148.4001" y2="148.4001"/><text fill="#000000" font-family="sans-serif" font-size="10" lengthAdjust="spacing" textLength="73" x="311" y="159.6901">BasicConv2d_2</text><text fill="#000000" font-family="sans-serif" font-size="10" lengthAdjust="spacing" textLength="253" x="394" y="159.6901">(192, 192, kernel_size=(3, 1), stride=1, padding=(1, 0))</text><line style="stroke:#A80036;stroke-width:1.0;" x1="389" x2="389" y1="148.4001" y2="164.4001"/><rect fill="#FEFECE" filter="url(#f4kbq4epe5e42)" height="82.4001" style="stroke:#A80036;stroke-width:1.5;" width="102" x="489" y="325"/><text fill="#000000" font-family="sans-serif" font-size="12" lengthAdjust="spacing" textLength="43" x="518.5" y="338.1481">Conv2d</text><line style="stroke:#A80036;stroke-width:1.0;" x1="489" x2="591" y1="343.4001" y2="343.4001"/><text fill="#000000" font-family="sans-serif" font-size="10" lengthAdjust="spacing" textLength="51" x="497.5" y="354.6901">in_channel</text><text fill="#000000" font-family="sans-serif" font-size="10" lengthAdjust="spacing" textLength="18" x="562" y="354.6901">384</text><line style="stroke:#A80036;stroke-width:1.0;" x1="557" x2="557" y1="343.4001" y2="359.4001"/><line style="stroke:#A80036;stroke-width:1.0;" x1="489" x2="591" y1="359.4001" y2="359.4001"/><text fill="#000000" font-family="sans-serif" font-size="10" lengthAdjust="spacing" textLength="58" x="494" y="370.6901">out_channel</text><text fill="#000000" font-family="sans-serif" font-size="10" lengthAdjust="spacing" textLength="24" x="562" y="370.6901">1792</text><line style="stroke:#A80036;stroke-width:1.0;" x1="557" x2="557" y1="359.4001" y2="375.4001"/><line style="stroke:#A80036;stroke-width:1.0;" x1="489" x2="591" y1="375.4001" y2="375.4001"/><text fill="#000000" font-family="sans-serif" font-size="10" lengthAdjust="spacing" textLength="52" x="497" y="386.6901">kernel_size</text><text fill="#000000" font-family="sans-serif" font-size="10" lengthAdjust="spacing" textLength="6" x="562" y="386.6901">1</text><line style="stroke:#A80036;stroke-width:1.0;" x1="557" x2="557" y1="375.4001" y2="391.4001"/><line style="stroke:#A80036;stroke-width:1.0;" x1="489" x2="591" y1="391.4001" y2="391.4001"/><text fill="#000000" font-family="sans-serif" font-size="10" lengthAdjust="spacing" textLength="25" x="510.5" y="402.6901">stride</text><text fill="#000000" font-family="sans-serif" font-size="10" lengthAdjust="spacing" textLength="6" x="562" y="402.6901">1</text><line style="stroke:#A80036;stroke-width:1.0;" x1="557" x2="557" y1="391.4001" y2="407.4001"/><rect fill="#FEFECE" filter="url(#f4kbq4epe5e42)" height="18.4001" style="stroke:#A80036;stroke-width:1.5;" width="46" x="573" y="572"/><text fill="#000000" font-family="sans-serif" font-size="12" lengthAdjust="spacing" textLength="32" x="580" y="585.1481">ReLU</text><rect fill="#FEFECE" filter="url(#f4kbq4epe5e42)" height="18.4001" style="stroke:#A80036;stroke-width:1.5;" width="22" x="468" y="7"/><text fill="#000000" font-family="sans-serif" font-size="12" lengthAdjust="spacing" textLength="8" x="475" y="20.1481">X</text><rect fill="#FEFECE" filter="url(#f4kbq4epe5e42)" height="18.4001" style="stroke:#A80036;stroke-width:1.5;" width="33" x="462.5" y="234"/><text fill="#000000" font-family="sans-serif" font-size="12" lengthAdjust="spacing" textLength="19" x="469.5" y="247.1481">Cat</text><rect fill="#FEFECE" filter="url(#f4kbq4epe5e42)" height="18.4001" style="stroke:#A80036;stroke-width:1.5;" width="36" x="578" y="476"/><text fill="#000000" font-family="sans-serif" font-size="12" lengthAdjust="spacing" textLength="22" x="585" y="489.1481">Add</text><!--MD5=[adb164c456936209887effae80d07d84]
link X to Branch0--><path codeLine="125" d="M451.98,25.66 C397.68,43.05 273.93,82.7 196.93,107.38 " fill="none" id="X-to-Branch0" style="stroke:#A80036;stroke-width:1.0;"/><polygon fill="#A80036" points="191.93,108.98,201.7222,110.035,196.6903,107.4504,199.2749,102.4185,191.93,108.98" style="stroke:#A80036;stroke-width:1.0;"/><!--MD5=[6dce2fc1faddc54ef0a3cfc9f7a44ff5]
link X to Branch1--><path codeLine="126" d="M479,34.42 C479,48.87 479,69.96 479,88.52 " fill="none" id="X-to-Branch1" style="stroke:#A80036;stroke-width:1.0;"/><polygon fill="#A80036" points="479,93.68,483,84.68,479,88.68,475,84.68,479,93.68" style="stroke:#A80036;stroke-width:1.0;"/><!--MD5=[576da4c999da0950018a46dc7d2f93ff]
link Branch0 to Cat--><path codeLine="127" d="M192.02,150.05 C266.19,173.82 388.62,213.04 446.62,231.62 " fill="none" id="Branch0-to-Cat" style="stroke:#A80036;stroke-width:1.0;"/><polygon fill="#A80036" points="451.69,233.25,444.3451,226.6885,446.9297,231.7204,441.8978,234.305,451.69,233.25" style="stroke:#A80036;stroke-width:1.0;"/><!--MD5=[41b66985f37a050a4ba8a8a742512a66]
link Branch1 to Cat--><path codeLine="128" d="M479,165.17 C479,182.97 479,204.14 479,219.75 " fill="none" id="Branch1-to-Cat" style="stroke:#A80036;stroke-width:1.0;"/><polygon fill="#A80036" points="479,224.81,483,215.81,479,219.81,475,215.81,479,224.81" style="stroke:#A80036;stroke-width:1.0;"/><!--MD5=[b2191eab50d43b79d2b08b713596042c]
link Cat to Conv2d--><path codeLine="129" d="M487.74,261.05 C495.09,275.39 505.96,296.59 515.88,315.95 " fill="none" id="Cat-to-Conv2d" style="stroke:#A80036;stroke-width:1.0;"/><polygon fill="#A80036" points="518.38,320.82,517.8324,310.9864,516.0984,316.3709,510.7139,314.6369,518.38,320.82" style="stroke:#A80036;stroke-width:1.0;"/><!--MD5=[6e4a1d26cf790fbec3cd00d3ad0fadd8]
link Conv2d to Add--><path codeLine="130" d="M559.9,407.29 C568.68,425.94 578.61,447.05 585.84,462.4 " fill="none" id="Conv2d-to-Add" style="stroke:#A80036;stroke-width:1.0;"/><polygon fill="#A80036" points="587.99,466.97,587.7816,457.1233,585.8631,462.4449,580.5415,460.5264,587.99,466.97" style="stroke:#A80036;stroke-width:1.0;"/><!--MD5=[8448f3f7d6e62426576d1baa84900e0a]
link X to Add--><path codeLine="131" d="M506.04,18.31 C550.71,22.11 638.84,36.86 678,94 C760.12,213.83 652.38,399.44 610.97,462.32 " fill="none" id="X-to-Add" style="stroke:#A80036;stroke-width:1.0;"/><polygon fill="#A80036" points="608.11,466.64,616.4222,461.3572,610.8769,462.4754,609.7587,456.9301,608.11,466.64" style="stroke:#A80036;stroke-width:1.0;"/><!--MD5=[496da464913a9c6a83bee3f96b6b5ff2]
link Add to ReLU--><path codeLine="132" d="M596,503.24 C596,518.48 596,540.81 596,557.46 " fill="none" id="Add-to-ReLU" style="stroke:#A80036;stroke-width:1.0;"/><polygon fill="#A80036" points="596,562.87,600,553.87,596,557.87,592,553.87,596,562.87" style="stroke:#A80036;stroke-width:1.0;"/><!--MD5=[608b92881f08ee1b5bcbc9b76fe9a344]
@startuml
map Branch0 {
    BasicConv2d => (1792, 192, kernel_size=1, stride=1)
}
map Branch1 {
    BasicConv2d_0 => (1792, 192, kernel_size=1, stride=1)
    BasicConv2d_1 => (192, 192, kernel_size=(1, 3), stride=1, padding=(0, 1))
    BasicConv2d_2 => (192, 192, kernel_size=(3, 1), stride=1, padding=(1, 0))
}
map Conv2d {
    in_channel => 384
    out_channel => 1792
    kernel_size => 1
    stride => 1
}
map ReLU {
    
}
map X {

}
map Cat {

}
map Add {

}
X- ->Branch0
X- ->Branch1
Branch0- ->Cat
Branch1- ->Cat
Cat- ->Conv2d
Conv2d- ->Add
X- ->Add
Add- ->ReLU
@enduml

PlantUML version 1.2021.16(Thu Dec 09 01:25:22 CST 2021)
(GPL source distribution)
Java Runtime: OpenJDK Runtime Environment
JVM: OpenJDK 64-Bit Server VM
Default Encoding: UTF-8
Language: en
Country: US
--></g></svg>