<?xml version="1.0" encoding="UTF-8" standalone="no"?><svg xmlns="http://www.w3.org/2000/svg" xmlns:xlink="http://www.w3.org/1999/xlink" contentScriptType="application/ecmascript" contentStyleType="text/css" height="251px" preserveAspectRatio="none" style="width:1039px;height:251px;background:#FFFFFF;" version="1.1" viewBox="0 0 1039 251" width="1039px" zoomAndPan="magnify"><defs><filter height="300%" id="f1sptjnfagijhq" width="300%" x="-1" y="-1"><feGaussianBlur result="blurOut" stdDeviation="2.0"/><feColorMatrix in="blurOut" result="blurOut2" type="matrix" values="0 0 0 0 0 0 0 0 0 0 0 0 0 0 0 0 0 0 .4 0"/><feOffset dx="4.0" dy="4.0" in="blurOut2" result="blurOut3"/><feBlend in="SourceGraphic" in2="blurOut3" mode="normal"/></filter></defs><g><rect fill="#FEFECE" filter="url(#f1sptjnfagijhq)" height="50.4001" style="stroke:#A80036;stroke-width:1.5;" width="254" x="7" y="98"/><text fill="#000000" font-family="sans-serif" font-size="12" lengthAdjust="spacing" textLength="46" x="111" y="111.1481">Branch0</text><line style="stroke:#A80036;stroke-width:1.0;" x1="7" x2="261" y1="116.4001" y2="116.4001"/><text fill="#000000" font-family="sans-serif" font-size="10" lengthAdjust="spacing" textLength="73" x="12" y="127.6901">BasicConv2d_0</text><text fill="#000000" font-family="sans-serif" font-size="10" lengthAdjust="spacing" textLength="161" x="95" y="127.6901">(896, 256, kernel_size=1, stride=1)</text><line style="stroke:#A80036;stroke-width:1.0;" x1="90" x2="90" y1="116.4001" y2="132.4001"/><line style="stroke:#A80036;stroke-width:1.0;" x1="7" x2="261" y1="132.4001" y2="132.4001"/><text fill="#000000" font-family="sans-serif" font-size="10" lengthAdjust="spacing" textLength="73" x="12" y="143.6901">BasicConv2d_1</text><text fill="#000000" font-family="sans-serif" font-size="10" lengthAdjust="spacing" textLength="161" x="95" y="143.6901">(256, 384, kernel_size=3, stride=2)</text><line style="stroke:#A80036;stroke-width:1.0;" x1="90" x2="90" y1="132.4001" y2="148.4001"/><rect fill="#FEFECE" filter="url(#f1sptjnfagijhq)" height="50.4001" style="stroke:#A80036;stroke-width:1.5;" width="254" x="312" y="98"/><text fill="#000000" font-family="sans-serif" font-size="12" lengthAdjust="spacing" textLength="46" x="416" y="111.1481">Branch1</text><line style="stroke:#A80036;stroke-width:1.0;" x1="312" x2="566" y1="116.4001" y2="116.4001"/><text fill="#000000" font-family="sans-serif" font-size="10" lengthAdjust="spacing" textLength="73" x="317" y="127.6901">BasicConv2d_0</text><text fill="#000000" font-family="sans-serif" font-size="10" lengthAdjust="spacing" textLength="161" x="400" y="127.6901">(896, 256, kernel_size=1, stride=1)</text><line style="stroke:#A80036;stroke-width:1.0;" x1="395" x2="395" y1="116.4001" y2="132.4001"/><line style="stroke:#A80036;stroke-width:1.0;" x1="312" x2="566" y1="132.4001" y2="132.4001"/><text fill="#000000" font-family="sans-serif" font-size="10" lengthAdjust="spacing" textLength="73" x="317" y="143.6901">BasicConv2d_1</text><text fill="#000000" font-family="sans-serif" font-size="10" lengthAdjust="spacing" textLength="161" x="400" y="143.6901">(256, 256, kernel_size=3, stride=2)</text><line style="stroke:#A80036;stroke-width:1.0;" x1="395" x2="395" y1="132.4001" y2="148.4001"/><rect fill="#FEFECE" filter="url(#f1sptjnfagijhq)" height="34.4001" style="stroke:#A80036;stroke-width:1.5;" width="242" x="617" y="105.5"/><text fill="#000000" font-family="sans-serif" font-size="12" lengthAdjust="spacing" textLength="46" x="715" y="118.6481">Branch2</text><line style="stroke:#A80036;stroke-width:1.0;" x1="617" x2="859" y1="123.9001" y2="123.9001"/><text fill="#000000" font-family="sans-serif" font-size="10" lengthAdjust="spacing" textLength="61" x="622" y="135.1901">BasicConv2d</text><text fill="#000000" font-family="sans-serif" font-size="10" lengthAdjust="spacing" textLength="161" x="693" y="135.1901">(256, 256, kernel_size=3, stride=2)</text><line style="stroke:#A80036;stroke-width:1.0;" x1="688" x2="688" y1="123.9001" y2="139.9001"/><rect fill="#FEFECE" filter="url(#f1sptjnfagijhq)" height="34.4001" style="stroke:#A80036;stroke-width:1.5;" width="115" x="910.5" y="105.5"/><text fill="#000000" font-family="sans-serif" font-size="12" lengthAdjust="spacing" textLength="46" x="945" y="118.6481">Branch3</text><line style="stroke:#A80036;stroke-width:1.0;" x1="910.5" x2="1025.5" y1="123.9001" y2="123.9001"/><text fill="#000000" font-family="sans-serif" font-size="10" lengthAdjust="spacing" textLength="52" x="915.5" y="135.1901">MaxPool2d</text><text fill="#000000" font-family="sans-serif" font-size="10" lengthAdjust="spacing" textLength="43" x="977.5" y="135.1901">(3, stride)</text><line style="stroke:#A80036;stroke-width:1.0;" x1="972.5" x2="972.5" y1="123.9001" y2="139.9001"/><rect fill="#FEFECE" filter="url(#f1sptjnfagijhq)" height="18.4001" style="stroke:#A80036;stroke-width:1.5;" width="22" x="577" y="7"/><text fill="#000000" font-family="sans-serif" font-size="12" lengthAdjust="spacing" textLength="8" x="584" y="20.1481">X</text><rect fill="#FEFECE" filter="url(#f1sptjnfagijhq)" height="18.4001" style="stroke:#A80036;stroke-width:1.5;" width="33" x="571.5" y="219"/><text fill="#000000" font-family="sans-serif" font-size="12" lengthAdjust="spacing" textLength="19" x="578.5" y="232.1481">Cat</text><!--MD5=[adb164c456936209887effae80d07d84]
link X to Branch0--><path codeLine="184" d="M560.96,23.19 C502.47,36.59 361.09,68.98 256.97,92.83 " fill="none" id="X-to-Branch0" style="stroke:#A80036;stroke-width:1.0;"/><polygon fill="#A80036" points="252.04,93.96,261.7053,95.8525,256.9141,92.8451,259.9215,88.0539,252.04,93.96" style="stroke:#A80036;stroke-width:1.0;"/><!--MD5=[6dce2fc1faddc54ef0a3cfc9f7a44ff5]
link X to Branch1--><path codeLine="185" d="M563.4,34.17 C541.35,49.56 508.51,72.48 482.11,90.91 " fill="none" id="X-to-Branch1" style="stroke:#A80036;stroke-width:1.0;"/><polygon fill="#A80036" points="477.93,93.83,487.6009,91.9661,482.0322,90.9713,483.027,85.4026,477.93,93.83" style="stroke:#A80036;stroke-width:1.0;"/><!--MD5=[971e7785cd994a223b8f381cb3efafb7]
link X to Branch2--><path codeLine="186" d="M612.77,34.17 C638.12,51.75 677.65,79.16 705.51,98.47 " fill="none" id="X-to-Branch2" style="stroke:#A80036;stroke-width:1.0;"/><polygon fill="#A80036" points="709.87,101.5,704.7395,93.093,705.7565,98.6577,700.1918,99.6746,709.87,101.5" style="stroke:#A80036;stroke-width:1.0;"/><!--MD5=[9cc5ea98497a7d6f0a2cb39bad08f99a]
link X to Branch3--><path codeLine="187" d="M615.18,23.46 C667.62,36.05 786.32,65.19 885,94 C891.26,95.83 897.76,97.8 904.24,99.83 " fill="none" id="X-to-Branch3" style="stroke:#A80036;stroke-width:1.0;"/><polygon fill="#A80036" points="909.19,101.38,901.8039,94.865,904.4201,99.8805,899.4047,102.4968,909.19,101.38" style="stroke:#A80036;stroke-width:1.0;"/><!--MD5=[576da4c999da0950018a46dc7d2f93ff]
link Branch0 to Cat--><path codeLine="188" d="M252.1,150.05 C353.55,173.29 493.04,205.25 555.48,219.55 " fill="none" id="Branch0-to-Cat" style="stroke:#A80036;stroke-width:1.0;"/><polygon fill="#A80036" points="560.56,220.71,552.6785,214.8039,555.6859,219.5951,550.8947,222.6025,560.56,220.71" style="stroke:#A80036;stroke-width:1.0;"/><!--MD5=[41b66985f37a050a4ba8a8a742512a66]
link Branch1 to Cat--><path codeLine="189" d="M477.76,150.05 C503.25,167.84 536.05,190.74 559.23,206.92 " fill="none" id="Branch1-to-Cat" style="stroke:#A80036;stroke-width:1.0;"/><polygon fill="#A80036" points="563.44,209.86,558.343,201.4326,559.3378,207.0013,553.7691,207.9961,563.44,209.86" style="stroke:#A80036;stroke-width:1.0;"/><!--MD5=[1b9172bd8f7c241f07ad25900d580a96]
link Branch2 to Cat--><path codeLine="190" d="M709.79,142.56 C683.2,160.99 643.56,188.48 616.79,207.04 " fill="none" id="Branch2-to-Cat" style="stroke:#A80036;stroke-width:1.0;"/><polygon fill="#A80036" points="612.61,209.94,622.2839,208.0919,616.7168,207.088,617.7207,201.521,612.61,209.94" style="stroke:#A80036;stroke-width:1.0;"/><!--MD5=[771d86861efeec0999cead3941381a46]
link Branch3 to Cat--><path codeLine="191" d="M909.19,142.62 C901.09,145.18 892.85,147.71 885,150 C789.4,177.91 675.02,206.13 620.29,219.31 " fill="none" id="Branch3-to-Cat" style="stroke:#A80036;stroke-width:1.0;"/><polygon fill="#A80036" points="615.18,220.54,624.867,222.3184,620.0406,219.3677,622.9913,214.5414,615.18,220.54" style="stroke:#A80036;stroke-width:1.0;"/><!--MD5=[45ab4149371524220e3807361c578e88]
@startuml
map Branch0 {
    BasicConv2d_0 => (896, 256, kernel_size=1, stride=1)
    BasicConv2d_1 => (256, 384, kernel_size=3, stride=2)
}
map Branch1 {
    BasicConv2d_0 => (896, 256, kernel_size=1, stride=1)
    BasicConv2d_1 => (256, 256, kernel_size=3, stride=2)
}
map Branch2 {
    BasicConv2d => (896, 256, kernel_size=1, stride=1)
    BasicConv2d => (256, 256, kernel_size=3, stride=1, padding=1)
    BasicConv2d => (256, 256, kernel_size=3, stride=2)
}
map Branch3 {
    MaxPool2d => (3, stride)
}
map X {

}
map Cat {

}
X- ->Branch0
X- ->Branch1
X- ->Branch2
X- ->Branch3
Branch0- ->Cat
Branch1- ->Cat
Branch2- ->Cat
Branch3- ->Cat
@enduml

PlantUML version 1.2021.16(Thu Dec 09 01:25:22 CST 2021)
(GPL source distribution)
Java Runtime: OpenJDK Runtime Environment
JVM: OpenJDK 64-Bit Server VM
Default Encoding: UTF-8
Language: en
Country: US
--></g></svg>