<?xml version="1.0" encoding="UTF-8" standalone="no"?><svg xmlns="http://www.w3.org/2000/svg" xmlns:xlink="http://www.w3.org/1999/xlink" contentScriptType="application/ecmascript" contentStyleType="text/css" height="1528px" preserveAspectRatio="none" style="width:254px;height:1528px;background:#FFFFFF;" version="1.1" viewBox="0 0 254 1528" width="254px" zoomAndPan="magnify"><defs><filter height="300%" id="f1njygv40jx2yd" width="300%" x="-1" y="-1"><feGaussianBlur result="blurOut" stdDeviation="2.0"/><feColorMatrix in="blurOut" result="blurOut2" type="matrix" values="0 0 0 0 0 0 0 0 0 0 0 0 0 0 0 0 0 0 .4 0"/><feOffset dx="4.0" dy="4.0" in="blurOut2" result="blurOut3"/><feBlend in="SourceGraphic" in2="blurOut3" mode="normal"/></filter></defs><g><rect fill="#FEFECE" filter="url(#f1njygv40jx2yd)" height="66.4001" style="stroke:#A80036;stroke-width:1.5;" width="90" x="78.5" y="7"/><text fill="#000000" font-family="sans-serif" font-size="12" lengthAdjust="spacing" textLength="36" x="105.5" y="20.1481">Conv1</text><line style="stroke:#A80036;stroke-width:1.0;" x1="78.5" x2="168.5" y1="25.4001" y2="25.4001"/><text fill="#000000" font-family="sans-serif" font-size="10" lengthAdjust="spacing" textLength="51" x="87" y="36.6901">in_channel</text><text fill="#000000" font-family="sans-serif" font-size="10" lengthAdjust="spacing" textLength="6" x="151.5" y="36.6901">3</text><line style="stroke:#A80036;stroke-width:1.0;" x1="146.5" x2="146.5" y1="25.4001" y2="41.4001"/><line style="stroke:#A80036;stroke-width:1.0;" x1="78.5" x2="168.5" y1="41.4001" y2="41.4001"/><text fill="#000000" font-family="sans-serif" font-size="10" lengthAdjust="spacing" textLength="58" x="83.5" y="52.6901">out_channel</text><text fill="#000000" font-family="sans-serif" font-size="10" lengthAdjust="spacing" textLength="12" x="151.5" y="52.6901">28</text><line style="stroke:#A80036;stroke-width:1.0;" x1="146.5" x2="146.5" y1="41.4001" y2="57.4001"/><line style="stroke:#A80036;stroke-width:1.0;" x1="78.5" x2="168.5" y1="57.4001" y2="57.4001"/><text fill="#000000" font-family="sans-serif" font-size="10" lengthAdjust="spacing" textLength="52" x="86.5" y="68.6901">kernel_size</text><text fill="#000000" font-family="sans-serif" font-size="10" lengthAdjust="spacing" textLength="6" x="151.5" y="68.6901">3</text><line style="stroke:#A80036;stroke-width:1.0;" x1="146.5" x2="146.5" y1="57.4001" y2="73.4001"/><rect fill="#FEFECE" filter="url(#f1njygv40jx2yd)" height="34.4001" style="stroke:#A80036;stroke-width:1.5;" width="79" x="84" y="138"/><text fill="#000000" font-family="sans-serif" font-size="12" lengthAdjust="spacing" textLength="47" x="100" y="151.1481">PReLU1</text><line style="stroke:#A80036;stroke-width:1.0;" x1="84" x2="163" y1="156.4001" y2="156.4001"/><text fill="#000000" font-family="sans-serif" font-size="10" lengthAdjust="spacing" textLength="47" x="89" y="167.6901">input_size</text><text fill="#000000" font-family="sans-serif" font-size="10" lengthAdjust="spacing" textLength="12" x="146" y="167.6901">28</text><line style="stroke:#A80036;stroke-width:1.0;" x1="141" x2="141" y1="156.4001" y2="172.4001"/><rect fill="#FEFECE" filter="url(#f1njygv40jx2yd)" height="50.4001" style="stroke:#A80036;stroke-width:1.5;" width="78" x="84.5" y="239"/><text fill="#000000" font-family="sans-serif" font-size="12" lengthAdjust="spacing" textLength="32" x="107.5" y="252.1481">Pool1</text><line style="stroke:#A80036;stroke-width:1.0;" x1="84.5" x2="162.5" y1="257.4001" y2="257.4001"/><text fill="#000000" font-family="sans-serif" font-size="10" lengthAdjust="spacing" textLength="52" x="89.5" y="268.6901">kernel_size</text><text fill="#000000" font-family="sans-serif" font-size="10" lengthAdjust="spacing" textLength="6" x="151.5" y="268.6901">3</text><line style="stroke:#A80036;stroke-width:1.0;" x1="146.5" x2="146.5" y1="257.4001" y2="273.4001"/><line style="stroke:#A80036;stroke-width:1.0;" x1="84.5" x2="162.5" y1="273.4001" y2="273.4001"/><text fill="#000000" font-family="sans-serif" font-size="10" lengthAdjust="spacing" textLength="25" x="103" y="284.6901">stride</text><text fill="#000000" font-family="sans-serif" font-size="10" lengthAdjust="spacing" textLength="6" x="151.5" y="284.6901">2</text><line style="stroke:#A80036;stroke-width:1.0;" x1="146.5" x2="146.5" y1="273.4001" y2="289.4001"/><rect fill="#FEFECE" filter="url(#f1njygv40jx2yd)" height="66.4001" style="stroke:#A80036;stroke-width:1.5;" width="90" x="78.5" y="355"/><text fill="#000000" font-family="sans-serif" font-size="12" lengthAdjust="spacing" textLength="36" x="105.5" y="368.1481">Conv2</text><line style="stroke:#A80036;stroke-width:1.0;" x1="78.5" x2="168.5" y1="373.4001" y2="373.4001"/><text fill="#000000" font-family="sans-serif" font-size="10" lengthAdjust="spacing" textLength="51" x="87" y="384.6901">in_channel</text><text fill="#000000" font-family="sans-serif" font-size="10" lengthAdjust="spacing" textLength="12" x="151.5" y="384.6901">28</text><line style="stroke:#A80036;stroke-width:1.0;" x1="146.5" x2="146.5" y1="373.4001" y2="389.4001"/><line style="stroke:#A80036;stroke-width:1.0;" x1="78.5" x2="168.5" y1="389.4001" y2="389.4001"/><text fill="#000000" font-family="sans-serif" font-size="10" lengthAdjust="spacing" textLength="58" x="83.5" y="400.6901">out_channel</text><text fill="#000000" font-family="sans-serif" font-size="10" lengthAdjust="spacing" textLength="12" x="151.5" y="400.6901">48</text><line style="stroke:#A80036;stroke-width:1.0;" x1="146.5" x2="146.5" y1="389.4001" y2="405.4001"/><line style="stroke:#A80036;stroke-width:1.0;" x1="78.5" x2="168.5" y1="405.4001" y2="405.4001"/><text fill="#000000" font-family="sans-serif" font-size="10" lengthAdjust="spacing" textLength="52" x="86.5" y="416.6901">kernel_size</text><text fill="#000000" font-family="sans-serif" font-size="10" lengthAdjust="spacing" textLength="6" x="151.5" y="416.6901">3</text><line style="stroke:#A80036;stroke-width:1.0;" x1="146.5" x2="146.5" y1="405.4001" y2="421.4001"/><rect fill="#FEFECE" filter="url(#f1njygv40jx2yd)" height="34.4001" style="stroke:#A80036;stroke-width:1.5;" width="79" x="84" y="486"/><text fill="#000000" font-family="sans-serif" font-size="12" lengthAdjust="spacing" textLength="47" x="100" y="499.1481">PReLU2</text><line style="stroke:#A80036;stroke-width:1.0;" x1="84" x2="163" y1="504.4001" y2="504.4001"/><text fill="#000000" font-family="sans-serif" font-size="10" lengthAdjust="spacing" textLength="47" x="89" y="515.6901">input_size</text><text fill="#000000" font-family="sans-serif" font-size="10" lengthAdjust="spacing" textLength="12" x="146" y="515.6901">48</text><line style="stroke:#A80036;stroke-width:1.0;" x1="141" x2="141" y1="504.4001" y2="520.4001"/><rect fill="#FEFECE" filter="url(#f1njygv40jx2yd)" height="66.4001" style="stroke:#A80036;stroke-width:1.5;" width="93" x="77" y="587"/><text fill="#000000" font-family="sans-serif" font-size="12" lengthAdjust="spacing" textLength="32" x="107.5" y="600.1481">Pool2</text><line style="stroke:#A80036;stroke-width:1.0;" x1="77" x2="170" y1="605.4001" y2="605.4001"/><text fill="#000000" font-family="sans-serif" font-size="10" lengthAdjust="spacing" textLength="52" x="82" y="616.6901">kernel_size</text><text fill="#000000" font-family="sans-serif" font-size="10" lengthAdjust="spacing" textLength="6" x="144" y="616.6901">3</text><line style="stroke:#A80036;stroke-width:1.0;" x1="139" x2="139" y1="605.4001" y2="621.4001"/><line style="stroke:#A80036;stroke-width:1.0;" x1="77" x2="170" y1="621.4001" y2="621.4001"/><text fill="#000000" font-family="sans-serif" font-size="10" lengthAdjust="spacing" textLength="25" x="95.5" y="632.6901">stride</text><text fill="#000000" font-family="sans-serif" font-size="10" lengthAdjust="spacing" textLength="6" x="144" y="632.6901">2</text><line style="stroke:#A80036;stroke-width:1.0;" x1="139" x2="139" y1="621.4001" y2="637.4001"/><line style="stroke:#A80036;stroke-width:1.0;" x1="77" x2="170" y1="637.4001" y2="637.4001"/><text fill="#000000" font-family="sans-serif" font-size="10" lengthAdjust="spacing" textLength="47" x="84.5" y="648.6901">ceil_mode</text><text fill="#000000" font-family="sans-serif" font-size="10" lengthAdjust="spacing" textLength="21" x="144" y="648.6901">True</text><line style="stroke:#A80036;stroke-width:1.0;" x1="139" x2="139" y1="637.4001" y2="653.4001"/><rect fill="#FEFECE" filter="url(#f1njygv40jx2yd)" height="66.4001" style="stroke:#A80036;stroke-width:1.5;" width="90" x="78.5" y="718"/><text fill="#000000" font-family="sans-serif" font-size="12" lengthAdjust="spacing" textLength="36" x="105.5" y="731.1481">Conv3</text><line style="stroke:#A80036;stroke-width:1.0;" x1="78.5" x2="168.5" y1="736.4001" y2="736.4001"/><text fill="#000000" font-family="sans-serif" font-size="10" lengthAdjust="spacing" textLength="51" x="87" y="747.6901">in_channel</text><text fill="#000000" font-family="sans-serif" font-size="10" lengthAdjust="spacing" textLength="12" x="151.5" y="747.6901">48</text><line style="stroke:#A80036;stroke-width:1.0;" x1="146.5" x2="146.5" y1="736.4001" y2="752.4001"/><line style="stroke:#A80036;stroke-width:1.0;" x1="78.5" x2="168.5" y1="752.4001" y2="752.4001"/><text fill="#000000" font-family="sans-serif" font-size="10" lengthAdjust="spacing" textLength="58" x="83.5" y="763.6901">out_channel</text><text fill="#000000" font-family="sans-serif" font-size="10" lengthAdjust="spacing" textLength="12" x="151.5" y="763.6901">64</text><line style="stroke:#A80036;stroke-width:1.0;" x1="146.5" x2="146.5" y1="752.4001" y2="768.4001"/><line style="stroke:#A80036;stroke-width:1.0;" x1="78.5" x2="168.5" y1="768.4001" y2="768.4001"/><text fill="#000000" font-family="sans-serif" font-size="10" lengthAdjust="spacing" textLength="52" x="86.5" y="779.6901">kernel_size</text><text fill="#000000" font-family="sans-serif" font-size="10" lengthAdjust="spacing" textLength="6" x="151.5" y="779.6901">2</text><line style="stroke:#A80036;stroke-width:1.0;" x1="146.5" x2="146.5" y1="768.4001" y2="784.4001"/><rect fill="#FEFECE" filter="url(#f1njygv40jx2yd)" height="34.4001" style="stroke:#A80036;stroke-width:1.5;" width="79" x="84" y="849"/><text fill="#000000" font-family="sans-serif" font-size="12" lengthAdjust="spacing" textLength="47" x="100" y="862.1481">PReLU3</text><line style="stroke:#A80036;stroke-width:1.0;" x1="84" x2="163" y1="867.4001" y2="867.4001"/><text fill="#000000" font-family="sans-serif" font-size="10" lengthAdjust="spacing" textLength="47" x="89" y="878.6901">input_size</text><text fill="#000000" font-family="sans-serif" font-size="10" lengthAdjust="spacing" textLength="12" x="146" y="878.6901">64</text><line style="stroke:#A80036;stroke-width:1.0;" x1="141" x2="141" y1="867.4001" y2="883.4001"/><rect fill="#FEFECE" filter="url(#f1njygv40jx2yd)" height="50.4001" style="stroke:#A80036;stroke-width:1.5;" width="91" x="78" y="1147"/><text fill="#000000" font-family="sans-serif" font-size="12" lengthAdjust="spacing" textLength="23" x="112" y="1160.1481">FC4</text><line style="stroke:#A80036;stroke-width:1.0;" x1="78" x2="169" y1="1165.4001" y2="1165.4001"/><text fill="#000000" font-family="sans-serif" font-size="10" lengthAdjust="spacing" textLength="52" x="83.5" y="1176.6901">in_features</text><text fill="#000000" font-family="sans-serif" font-size="10" lengthAdjust="spacing" textLength="18" x="146" y="1176.6901">576</text><line style="stroke:#A80036;stroke-width:1.0;" x1="141" x2="141" y1="1165.4001" y2="1181.4001"/><line style="stroke:#A80036;stroke-width:1.0;" x1="78" x2="169" y1="1181.4001" y2="1181.4001"/><text fill="#000000" font-family="sans-serif" font-size="10" lengthAdjust="spacing" textLength="53" x="83" y="1192.6901">out_featurs</text><text fill="#000000" font-family="sans-serif" font-size="10" lengthAdjust="spacing" textLength="18" x="146" y="1192.6901">128</text><line style="stroke:#A80036;stroke-width:1.0;" x1="141" x2="141" y1="1181.4001" y2="1197.4001"/><rect fill="#FEFECE" filter="url(#f1njygv40jx2yd)" height="34.4001" style="stroke:#A80036;stroke-width:1.5;" width="85" x="81" y="1263"/><text fill="#000000" font-family="sans-serif" font-size="12" lengthAdjust="spacing" textLength="47" x="100" y="1276.1481">PReLU4</text><line style="stroke:#A80036;stroke-width:1.0;" x1="81" x2="166" y1="1281.4001" y2="1281.4001"/><text fill="#000000" font-family="sans-serif" font-size="10" lengthAdjust="spacing" textLength="47" x="86" y="1292.6901">input_size</text><text fill="#000000" font-family="sans-serif" font-size="10" lengthAdjust="spacing" textLength="18" x="143" y="1292.6901">128</text><line style="stroke:#A80036;stroke-width:1.0;" x1="138" x2="138" y1="1281.4001" y2="1297.4001"/><rect fill="#FEFECE" filter="url(#f1njygv40jx2yd)" height="50.4001" style="stroke:#A80036;stroke-width:1.5;" width="91" x="7" y="1364"/><text fill="#000000" font-family="sans-serif" font-size="12" lengthAdjust="spacing" textLength="37" x="34" y="1377.1481">FC5_1</text><line style="stroke:#A80036;stroke-width:1.0;" x1="7" x2="98" y1="1382.4001" y2="1382.4001"/><text fill="#000000" font-family="sans-serif" font-size="10" lengthAdjust="spacing" textLength="52" x="12.5" y="1393.6901">in_features</text><text fill="#000000" font-family="sans-serif" font-size="10" lengthAdjust="spacing" textLength="18" x="75" y="1393.6901">128</text><line style="stroke:#A80036;stroke-width:1.0;" x1="70" x2="70" y1="1382.4001" y2="1398.4001"/><line style="stroke:#A80036;stroke-width:1.0;" x1="7" x2="98" y1="1398.4001" y2="1398.4001"/><text fill="#000000" font-family="sans-serif" font-size="10" lengthAdjust="spacing" textLength="53" x="12" y="1409.6901">out_featurs</text><text fill="#000000" font-family="sans-serif" font-size="10" lengthAdjust="spacing" textLength="6" x="75" y="1409.6901">2</text><line style="stroke:#A80036;stroke-width:1.0;" x1="70" x2="70" y1="1398.4001" y2="1414.4001"/><rect fill="#FEFECE" filter="url(#f1njygv40jx2yd)" height="34.4001" style="stroke:#A80036;stroke-width:1.5;" width="79" x="13" y="1480"/><text fill="#000000" font-family="sans-serif" font-size="12" lengthAdjust="spacing" textLength="65" x="20" y="1493.1481">Softmax5_1</text><line style="stroke:#A80036;stroke-width:1.0;" x1="13" x2="92" y1="1498.4001" y2="1498.4001"/><text fill="#000000" font-family="sans-serif" font-size="10" lengthAdjust="spacing" textLength="16" x="18" y="1509.6901">dim</text><text fill="#000000" font-family="sans-serif" font-size="10" lengthAdjust="spacing" textLength="6" x="44" y="1509.6901">1</text><line style="stroke:#A80036;stroke-width:1.0;" x1="39" x2="39" y1="1498.4001" y2="1514.4001"/><rect fill="#FEFECE" filter="url(#f1njygv40jx2yd)" height="50.4001" style="stroke:#A80036;stroke-width:1.5;" width="91" x="149" y="1364"/><text fill="#000000" font-family="sans-serif" font-size="12" lengthAdjust="spacing" textLength="37" x="176" y="1377.1481">FC5_2</text><line style="stroke:#A80036;stroke-width:1.0;" x1="149" x2="240" y1="1382.4001" y2="1382.4001"/><text fill="#000000" font-family="sans-serif" font-size="10" lengthAdjust="spacing" textLength="52" x="154.5" y="1393.6901">in_features</text><text fill="#000000" font-family="sans-serif" font-size="10" lengthAdjust="spacing" textLength="18" x="217" y="1393.6901">128</text><line style="stroke:#A80036;stroke-width:1.0;" x1="212" x2="212" y1="1382.4001" y2="1398.4001"/><line style="stroke:#A80036;stroke-width:1.0;" x1="149" x2="240" y1="1398.4001" y2="1398.4001"/><text fill="#000000" font-family="sans-serif" font-size="10" lengthAdjust="spacing" textLength="53" x="154" y="1409.6901">out_featurs</text><text fill="#000000" font-family="sans-serif" font-size="10" lengthAdjust="spacing" textLength="6" x="217" y="1409.6901">4</text><line style="stroke:#A80036;stroke-width:1.0;" x1="212" x2="212" y1="1398.4001" y2="1414.4001"/><rect fill="#FEFECE" filter="url(#f1njygv40jx2yd)" height="34.4001" style="stroke:#A80036;stroke-width:1.5;" width="97" x="75" y="950"/><text fill="#000000" font-family="sans-serif" font-size="12" lengthAdjust="spacing" textLength="46" x="100.5" y="963.1481">Permute</text><line style="stroke:#A80036;stroke-width:1.0;" x1="75" x2="172" y1="968.4001" y2="968.4001"/><text fill="#000000" font-family="sans-serif" font-size="10" lengthAdjust="spacing" textLength="29" x="80" y="979.6901">shape</text><text fill="#000000" font-family="sans-serif" font-size="10" lengthAdjust="spacing" textLength="48" x="119" y="979.6901">(0, 3, 2, 1)</text><line style="stroke:#A80036;stroke-width:1.0;" x1="114" x2="114" y1="968.4001" y2="984.4001"/><rect fill="#FEFECE" filter="url(#f1njygv40jx2yd)" height="18.4001" style="stroke:#A80036;stroke-width:1.5;" width="51" x="98" y="1056"/><text fill="#000000" font-family="sans-serif" font-size="12" lengthAdjust="spacing" textLength="37" x="105" y="1069.1481">Flatten</text><!--MD5=[fb3a6f47aace28a4986623885c86ad37]
link Conv1 to PReLU1--><path codeLine="115" d="M123.5,74.01 C123.5,91.56 123.5,112.49 123.5,128.47 " fill="none" id="Conv1-to-PReLU1" style="stroke:#A80036;stroke-width:1.0;"/><polygon fill="#A80036" points="123.5,133.68,127.5,124.68,123.5,128.68,119.5,124.68,123.5,133.68" style="stroke:#A80036;stroke-width:1.0;"/><!--MD5=[64b15d6c0af67dd9b79769c0de7f1ead]
link PReLU1 to Pool1--><path codeLine="116" d="M123.5,175.03 C123.5,190.27 123.5,211.77 123.5,229.57 " fill="none" id="PReLU1-to-Pool1" style="stroke:#A80036;stroke-width:1.0;"/><polygon fill="#A80036" points="123.5,234.97,127.5,225.97,123.5,229.97,119.5,225.97,123.5,234.97" style="stroke:#A80036;stroke-width:1.0;"/><!--MD5=[b11e73a2b60ae2d91fa3631b1b92b4f9]
link Pool1 to Conv2--><path codeLine="117" d="M123.5,291.27 C123.5,307.25 123.5,327.72 123.5,345.5 " fill="none" id="Pool1-to-Conv2" style="stroke:#A80036;stroke-width:1.0;"/><polygon fill="#A80036" points="123.5,350.92,127.5,341.92,123.5,345.92,119.5,341.92,123.5,350.92" style="stroke:#A80036;stroke-width:1.0;"/><!--MD5=[d44ab6a77d165d78d5d0aa1dafd5d713]
link Conv2 to PReLU2--><path codeLine="118" d="M123.5,422.01 C123.5,439.56 123.5,460.49 123.5,476.47 " fill="none" id="Conv2-to-PReLU2" style="stroke:#A80036;stroke-width:1.0;"/><polygon fill="#A80036" points="123.5,481.68,127.5,472.68,123.5,476.68,119.5,472.68,123.5,481.68" style="stroke:#A80036;stroke-width:1.0;"/><!--MD5=[11cef378caca680a1793531e8a7f3f15]
link PReLU2 to Pool2--><path codeLine="119" d="M123.5,523.1 C123.5,538.11 123.5,559.32 123.5,577.84 " fill="none" id="PReLU2-to-Pool2" style="stroke:#A80036;stroke-width:1.0;"/><polygon fill="#A80036" points="123.5,582.98,127.5,573.98,123.5,577.98,119.5,573.98,123.5,582.98" style="stroke:#A80036;stroke-width:1.0;"/><!--MD5=[be9815201d08d9534453aaf3bafbc58e]
link Pool2 to Conv3--><path codeLine="120" d="M123.5,654.07 C123.5,670.84 123.5,691.09 123.5,708.52 " fill="none" id="Pool2-to-Conv3" style="stroke:#A80036;stroke-width:1.0;"/><polygon fill="#A80036" points="123.5,713.83,127.5,704.83,123.5,708.83,119.5,704.83,123.5,713.83" style="stroke:#A80036;stroke-width:1.0;"/><!--MD5=[e3449f1fd71a07ffb5f212930dc9e1fa]
link Conv3 to PReLU3--><path codeLine="121" d="M123.5,785.01 C123.5,802.56 123.5,823.49 123.5,839.47 " fill="none" id="Conv3-to-PReLU3" style="stroke:#A80036;stroke-width:1.0;"/><polygon fill="#A80036" points="123.5,844.68,127.5,835.68,123.5,839.68,119.5,835.68,123.5,844.68" style="stroke:#A80036;stroke-width:1.0;"/><!--MD5=[41f226c675c0e91bae9c3557e323a7b1]
link PReLU3 to Permute--><path codeLine="122" d="M123.5,886.06 C123.5,901.79 123.5,923.98 123.5,940.91 " fill="none" id="PReLU3-to-Permute" style="stroke:#A80036;stroke-width:1.0;"/><polygon fill="#A80036" points="123.5,945.98,127.5,936.98,123.5,940.98,119.5,936.98,123.5,945.98" style="stroke:#A80036;stroke-width:1.0;"/><!--MD5=[6b381ae498eabb0e8e73530447261d36]
link Permute to Flatten--><path codeLine="123" d="M123.5,987.03 C123.5,1002.76 123.5,1024.9 123.5,1041.4 " fill="none" id="Permute-to-Flatten" style="stroke:#A80036;stroke-width:1.0;"/><polygon fill="#A80036" points="123.5,1046.77,127.5,1037.77,123.5,1041.77,119.5,1037.77,123.5,1046.77" style="stroke:#A80036;stroke-width:1.0;"/><!--MD5=[f199d6481f9c3f18902f627e63d3116b]
link Flatten to FC4--><path codeLine="124" d="M123.5,1083.17 C123.5,1097.81 123.5,1119.27 123.5,1137.19 " fill="none" id="Flatten-to-FC4" style="stroke:#A80036;stroke-width:1.0;"/><polygon fill="#A80036" points="123.5,1142.62,127.5,1133.62,123.5,1137.62,119.5,1133.62,123.5,1142.62" style="stroke:#A80036;stroke-width:1.0;"/><!--MD5=[3ccc3a445344caced4606460498ea557]
link FC4 to PReLU4--><path codeLine="125" d="M123.5,1199.15 C123.5,1215.87 123.5,1237.15 123.5,1253.47 " fill="none" id="FC4-to-PReLU4" style="stroke:#A80036;stroke-width:1.0;"/><polygon fill="#A80036" points="123.5,1258.8,127.5,1249.8,123.5,1253.8,119.5,1249.8,123.5,1258.8" style="stroke:#A80036;stroke-width:1.0;"/><!--MD5=[785437b1bcc69a48fb2e1e8ff33909f3]
link PReLU4 to FC5_1--><path codeLine="126" d="M110.48,1300.03 C100.14,1315.53 85.49,1337.51 73.51,1355.49 " fill="none" id="PReLU4-to-FC5_1" style="stroke:#A80036;stroke-width:1.0;"/><polygon fill="#A80036" points="70.52,1359.97,78.8405,1354.7003,73.2935,1355.8097,72.1841,1350.2627,70.52,1359.97" style="stroke:#A80036;stroke-width:1.0;"/><!--MD5=[02fd3776349f81c4eff68faf4d816a9f]
link FC5_1 to Softmax5_1--><path codeLine="127" d="M52.5,1416.15 C52.5,1432.87 52.5,1454.15 52.5,1470.47 " fill="none" id="FC5_1-to-Softmax5_1" style="stroke:#A80036;stroke-width:1.0;"/><polygon fill="#A80036" points="52.5,1475.8,56.5,1466.8,52.5,1470.8,48.5,1466.8,52.5,1475.8" style="stroke:#A80036;stroke-width:1.0;"/><!--MD5=[500a7f8b47ec1340aee2e2f6f56c4d11]
link PReLU4 to FC5_2--><path codeLine="128" d="M136.52,1300.03 C146.86,1315.53 161.51,1337.51 173.49,1355.49 " fill="none" id="PReLU4-to-FC5_2" style="stroke:#A80036;stroke-width:1.0;"/><polygon fill="#A80036" points="176.48,1359.97,174.8159,1350.2627,173.7065,1355.8097,168.1595,1354.7003,176.48,1359.97" style="stroke:#A80036;stroke-width:1.0;"/><!--MD5=[26ef1149a4f399e699a96b5f6d4a1e25]
@startuml
map Conv1 {
    in_channel => 3
    out_channel => 28
    kernel_size => 3
}
map PReLU1 {
    input_size => 28
}
map Pool1 {
    kernel_size => 3
    stride => 2
}
map Conv2 {
    in_channel => 28
    out_channel => 48
    kernel_size => 3
}
map PReLU2 {
    input_size => 48
}
map Pool2 {
    kernel_size => 3
    stride => 2
    ceil_mode => True
}
map Conv3 {
    in_channel => 48
    out_channel => 64
    kernel_size =>2
}
map PReLU3 {
    input_size =>64
}
map FC4 {
    in_features => 576
    out_featurs => 128
}
map PReLU4 {
    input_size => 128
}
map FC5_1 {
    in_features => 128
    out_featurs => 2
}
map Softmax5_1 {
    dim => 1
}
map FC5_2 {
    in_features => 128
    out_featurs =>4
}
map Permute {
    shape => (0, 3, 2, 1)
}
map Flatten {

}
Conv1- ->PReLU1
PReLU1- ->Pool1
Pool1- ->Conv2
Conv2- ->PReLU2
PReLU2- ->Pool2
Pool2- ->Conv3
Conv3- ->PReLU3
PReLU3- ->Permute
Permute- ->Flatten
Flatten- ->FC4
FC4- ->PReLU4
PReLU4- ->FC5_1
FC5_1- ->Softmax5_1
PReLU4- ->FC5_2
@enduml

PlantUML version 1.2021.16(Thu Dec 09 01:25:22 CST 2021)
(GPL source distribution)
Java Runtime: OpenJDK Runtime Environment
JVM: OpenJDK 64-Bit Server VM
Default Encoding: UTF-8
Language: en
Country: US
--></g></svg>