<?xml version="1.0" encoding="UTF-8" standalone="no"?><svg xmlns="http://www.w3.org/2000/svg" xmlns:xlink="http://www.w3.org/1999/xlink" contentScriptType="application/ecmascript" contentStyleType="text/css" height="1876px" preserveAspectRatio="none" style="width:409px;height:1876px;background:#FFFFFF;" version="1.1" viewBox="0 0 409 1876" width="409px" zoomAndPan="magnify"><defs><filter height="300%" id="fvxhda3ip4yhw" width="300%" x="-1" y="-1"><feGaussianBlur result="blurOut" stdDeviation="2.0"/><feColorMatrix in="blurOut" result="blurOut2" type="matrix" values="0 0 0 0 0 0 0 0 0 0 0 0 0 0 0 0 0 0 .4 0"/><feOffset dx="4.0" dy="4.0" in="blurOut2" result="blurOut3"/><feBlend in="SourceGraphic" in2="blurOut3" mode="normal"/></filter></defs><g><rect fill="#FEFECE" filter="url(#fvxhda3ip4yhw)" height="66.4001" style="stroke:#A80036;stroke-width:1.5;" width="90" x="154" y="7"/><text fill="#000000" font-family="sans-serif" font-size="12" lengthAdjust="spacing" textLength="36" x="181" y="20.1481">Conv1</text><line style="stroke:#A80036;stroke-width:1.0;" x1="154" x2="244" y1="25.4001" y2="25.4001"/><text fill="#000000" font-family="sans-serif" font-size="10" lengthAdjust="spacing" textLength="51" x="162.5" y="36.6901">in_channel</text><text fill="#000000" font-family="sans-serif" font-size="10" lengthAdjust="spacing" textLength="6" x="227" y="36.6901">3</text><line style="stroke:#A80036;stroke-width:1.0;" x1="222" x2="222" y1="25.4001" y2="41.4001"/><line style="stroke:#A80036;stroke-width:1.0;" x1="154" x2="244" y1="41.4001" y2="41.4001"/><text fill="#000000" font-family="sans-serif" font-size="10" lengthAdjust="spacing" textLength="58" x="159" y="52.6901">out_channel</text><text fill="#000000" font-family="sans-serif" font-size="10" lengthAdjust="spacing" textLength="12" x="227" y="52.6901">32</text><line style="stroke:#A80036;stroke-width:1.0;" x1="222" x2="222" y1="41.4001" y2="57.4001"/><line style="stroke:#A80036;stroke-width:1.0;" x1="154" x2="244" y1="57.4001" y2="57.4001"/><text fill="#000000" font-family="sans-serif" font-size="10" lengthAdjust="spacing" textLength="52" x="162" y="68.6901">kernel_size</text><text fill="#000000" font-family="sans-serif" font-size="10" lengthAdjust="spacing" textLength="6" x="227" y="68.6901">3</text><line style="stroke:#A80036;stroke-width:1.0;" x1="222" x2="222" y1="57.4001" y2="73.4001"/><rect fill="#FEFECE" filter="url(#fvxhda3ip4yhw)" height="34.4001" style="stroke:#A80036;stroke-width:1.5;" width="79" x="159.5" y="138"/><text fill="#000000" font-family="sans-serif" font-size="12" lengthAdjust="spacing" textLength="47" x="175.5" y="151.1481">PReLU1</text><line style="stroke:#A80036;stroke-width:1.0;" x1="159.5" x2="238.5" y1="156.4001" y2="156.4001"/><text fill="#000000" font-family="sans-serif" font-size="10" lengthAdjust="spacing" textLength="47" x="164.5" y="167.6901">input_size</text><text fill="#000000" font-family="sans-serif" font-size="10" lengthAdjust="spacing" textLength="12" x="221.5" y="167.6901">32</text><line style="stroke:#A80036;stroke-width:1.0;" x1="216.5" x2="216.5" y1="156.4001" y2="172.4001"/><rect fill="#FEFECE" filter="url(#fvxhda3ip4yhw)" height="66.4001" style="stroke:#A80036;stroke-width:1.5;" width="93" x="152.5" y="239"/><text fill="#000000" font-family="sans-serif" font-size="12" lengthAdjust="spacing" textLength="32" x="183" y="252.1481">Pool1</text><line style="stroke:#A80036;stroke-width:1.0;" x1="152.5" x2="245.5" y1="257.4001" y2="257.4001"/><text fill="#000000" font-family="sans-serif" font-size="10" lengthAdjust="spacing" textLength="52" x="157.5" y="268.6901">kernel_size</text><text fill="#000000" font-family="sans-serif" font-size="10" lengthAdjust="spacing" textLength="6" x="219.5" y="268.6901">3</text><line style="stroke:#A80036;stroke-width:1.0;" x1="214.5" x2="214.5" y1="257.4001" y2="273.4001"/><line style="stroke:#A80036;stroke-width:1.0;" x1="152.5" x2="245.5" y1="273.4001" y2="273.4001"/><text fill="#000000" font-family="sans-serif" font-size="10" lengthAdjust="spacing" textLength="25" x="171" y="284.6901">stride</text><text fill="#000000" font-family="sans-serif" font-size="10" lengthAdjust="spacing" textLength="6" x="219.5" y="284.6901">2</text><line style="stroke:#A80036;stroke-width:1.0;" x1="214.5" x2="214.5" y1="273.4001" y2="289.4001"/><line style="stroke:#A80036;stroke-width:1.0;" x1="152.5" x2="245.5" y1="289.4001" y2="289.4001"/><text fill="#000000" font-family="sans-serif" font-size="10" lengthAdjust="spacing" textLength="47" x="160" y="300.6901">ceil_mode</text><text fill="#000000" font-family="sans-serif" font-size="10" lengthAdjust="spacing" textLength="21" x="219.5" y="300.6901">True</text><line style="stroke:#A80036;stroke-width:1.0;" x1="214.5" x2="214.5" y1="289.4001" y2="305.4001"/><rect fill="#FEFECE" filter="url(#fvxhda3ip4yhw)" height="66.4001" style="stroke:#A80036;stroke-width:1.5;" width="90" x="154" y="370"/><text fill="#000000" font-family="sans-serif" font-size="12" lengthAdjust="spacing" textLength="36" x="181" y="383.1481">Conv2</text><line style="stroke:#A80036;stroke-width:1.0;" x1="154" x2="244" y1="388.4001" y2="388.4001"/><text fill="#000000" font-family="sans-serif" font-size="10" lengthAdjust="spacing" textLength="51" x="162.5" y="399.6901">in_channel</text><text fill="#000000" font-family="sans-serif" font-size="10" lengthAdjust="spacing" textLength="12" x="227" y="399.6901">32</text><line style="stroke:#A80036;stroke-width:1.0;" x1="222" x2="222" y1="388.4001" y2="404.4001"/><line style="stroke:#A80036;stroke-width:1.0;" x1="154" x2="244" y1="404.4001" y2="404.4001"/><text fill="#000000" font-family="sans-serif" font-size="10" lengthAdjust="spacing" textLength="58" x="159" y="415.6901">out_channel</text><text fill="#000000" font-family="sans-serif" font-size="10" lengthAdjust="spacing" textLength="12" x="227" y="415.6901">64</text><line style="stroke:#A80036;stroke-width:1.0;" x1="222" x2="222" y1="404.4001" y2="420.4001"/><line style="stroke:#A80036;stroke-width:1.0;" x1="154" x2="244" y1="420.4001" y2="420.4001"/><text fill="#000000" font-family="sans-serif" font-size="10" lengthAdjust="spacing" textLength="52" x="162" y="431.6901">kernel_size</text><text fill="#000000" font-family="sans-serif" font-size="10" lengthAdjust="spacing" textLength="6" x="227" y="431.6901">3</text><line style="stroke:#A80036;stroke-width:1.0;" x1="222" x2="222" y1="420.4001" y2="436.4001"/><rect fill="#FEFECE" filter="url(#fvxhda3ip4yhw)" height="34.4001" style="stroke:#A80036;stroke-width:1.5;" width="79" x="159.5" y="501"/><text fill="#000000" font-family="sans-serif" font-size="12" lengthAdjust="spacing" textLength="47" x="175.5" y="514.1481">PReLU2</text><line style="stroke:#A80036;stroke-width:1.0;" x1="159.5" x2="238.5" y1="519.4001" y2="519.4001"/><text fill="#000000" font-family="sans-serif" font-size="10" lengthAdjust="spacing" textLength="47" x="164.5" y="530.6901">input_size</text><text fill="#000000" font-family="sans-serif" font-size="10" lengthAdjust="spacing" textLength="12" x="221.5" y="530.6901">64</text><line style="stroke:#A80036;stroke-width:1.0;" x1="216.5" x2="216.5" y1="519.4001" y2="535.4001"/><rect fill="#FEFECE" filter="url(#fvxhda3ip4yhw)" height="66.4001" style="stroke:#A80036;stroke-width:1.5;" width="93" x="152.5" y="602"/><text fill="#000000" font-family="sans-serif" font-size="12" lengthAdjust="spacing" textLength="32" x="183" y="615.1481">Pool2</text><line style="stroke:#A80036;stroke-width:1.0;" x1="152.5" x2="245.5" y1="620.4001" y2="620.4001"/><text fill="#000000" font-family="sans-serif" font-size="10" lengthAdjust="spacing" textLength="52" x="157.5" y="631.6901">kernel_size</text><text fill="#000000" font-family="sans-serif" font-size="10" lengthAdjust="spacing" textLength="6" x="219.5" y="631.6901">3</text><line style="stroke:#A80036;stroke-width:1.0;" x1="214.5" x2="214.5" y1="620.4001" y2="636.4001"/><line style="stroke:#A80036;stroke-width:1.0;" x1="152.5" x2="245.5" y1="636.4001" y2="636.4001"/><text fill="#000000" font-family="sans-serif" font-size="10" lengthAdjust="spacing" textLength="25" x="171" y="647.6901">stride</text><text fill="#000000" font-family="sans-serif" font-size="10" lengthAdjust="spacing" textLength="6" x="219.5" y="647.6901">2</text><line style="stroke:#A80036;stroke-width:1.0;" x1="214.5" x2="214.5" y1="636.4001" y2="652.4001"/><line style="stroke:#A80036;stroke-width:1.0;" x1="152.5" x2="245.5" y1="652.4001" y2="652.4001"/><text fill="#000000" font-family="sans-serif" font-size="10" lengthAdjust="spacing" textLength="47" x="160" y="663.6901">ceil_mode</text><text fill="#000000" font-family="sans-serif" font-size="10" lengthAdjust="spacing" textLength="21" x="219.5" y="663.6901">True</text><line style="stroke:#A80036;stroke-width:1.0;" x1="214.5" x2="214.5" y1="652.4001" y2="668.4001"/><rect fill="#FEFECE" filter="url(#fvxhda3ip4yhw)" height="66.4001" style="stroke:#A80036;stroke-width:1.5;" width="90" x="154" y="733"/><text fill="#000000" font-family="sans-serif" font-size="12" lengthAdjust="spacing" textLength="36" x="181" y="746.1481">Conv3</text><line style="stroke:#A80036;stroke-width:1.0;" x1="154" x2="244" y1="751.4001" y2="751.4001"/><text fill="#000000" font-family="sans-serif" font-size="10" lengthAdjust="spacing" textLength="51" x="162.5" y="762.6901">in_channel</text><text fill="#000000" font-family="sans-serif" font-size="10" lengthAdjust="spacing" textLength="12" x="227" y="762.6901">64</text><line style="stroke:#A80036;stroke-width:1.0;" x1="222" x2="222" y1="751.4001" y2="767.4001"/><line style="stroke:#A80036;stroke-width:1.0;" x1="154" x2="244" y1="767.4001" y2="767.4001"/><text fill="#000000" font-family="sans-serif" font-size="10" lengthAdjust="spacing" textLength="58" x="159" y="778.6901">out_channel</text><text fill="#000000" font-family="sans-serif" font-size="10" lengthAdjust="spacing" textLength="12" x="227" y="778.6901">64</text><line style="stroke:#A80036;stroke-width:1.0;" x1="222" x2="222" y1="767.4001" y2="783.4001"/><line style="stroke:#A80036;stroke-width:1.0;" x1="154" x2="244" y1="783.4001" y2="783.4001"/><text fill="#000000" font-family="sans-serif" font-size="10" lengthAdjust="spacing" textLength="52" x="162" y="794.6901">kernel_size</text><text fill="#000000" font-family="sans-serif" font-size="10" lengthAdjust="spacing" textLength="6" x="227" y="794.6901">3</text><line style="stroke:#A80036;stroke-width:1.0;" x1="222" x2="222" y1="783.4001" y2="799.4001"/><rect fill="#FEFECE" filter="url(#fvxhda3ip4yhw)" height="34.4001" style="stroke:#A80036;stroke-width:1.5;" width="79" x="159.5" y="864"/><text fill="#000000" font-family="sans-serif" font-size="12" lengthAdjust="spacing" textLength="47" x="175.5" y="877.1481">PReLU3</text><line style="stroke:#A80036;stroke-width:1.0;" x1="159.5" x2="238.5" y1="882.4001" y2="882.4001"/><text fill="#000000" font-family="sans-serif" font-size="10" lengthAdjust="spacing" textLength="47" x="164.5" y="893.6901">input_size</text><text fill="#000000" font-family="sans-serif" font-size="10" lengthAdjust="spacing" textLength="12" x="221.5" y="893.6901">64</text><line style="stroke:#A80036;stroke-width:1.0;" x1="216.5" x2="216.5" y1="882.4001" y2="898.4001"/><rect fill="#FEFECE" filter="url(#fvxhda3ip4yhw)" height="50.4001" style="stroke:#A80036;stroke-width:1.5;" width="78" x="160" y="965"/><text fill="#000000" font-family="sans-serif" font-size="12" lengthAdjust="spacing" textLength="32" x="183" y="978.1481">Pool3</text><line style="stroke:#A80036;stroke-width:1.0;" x1="160" x2="238" y1="983.4001" y2="983.4001"/><text fill="#000000" font-family="sans-serif" font-size="10" lengthAdjust="spacing" textLength="52" x="165" y="994.6901">kernel_size</text><text fill="#000000" font-family="sans-serif" font-size="10" lengthAdjust="spacing" textLength="6" x="227" y="994.6901">2</text><line style="stroke:#A80036;stroke-width:1.0;" x1="222" x2="222" y1="983.4001" y2="999.4001"/><line style="stroke:#A80036;stroke-width:1.0;" x1="160" x2="238" y1="999.4001" y2="999.4001"/><text fill="#000000" font-family="sans-serif" font-size="10" lengthAdjust="spacing" textLength="25" x="178.5" y="1010.6901">stride</text><text fill="#000000" font-family="sans-serif" font-size="10" lengthAdjust="spacing" textLength="6" x="227" y="1010.6901">2</text><line style="stroke:#A80036;stroke-width:1.0;" x1="222" x2="222" y1="999.4001" y2="1015.4001"/><rect fill="#FEFECE" filter="url(#fvxhda3ip4yhw)" height="50.4001" style="stroke:#A80036;stroke-width:1.5;" width="96" x="151" y="1081"/><text fill="#000000" font-family="sans-serif" font-size="12" lengthAdjust="spacing" textLength="36" x="181" y="1094.1481">Conv4</text><line style="stroke:#A80036;stroke-width:1.0;" x1="151" x2="247" y1="1099.4001" y2="1099.4001"/><text fill="#000000" font-family="sans-serif" font-size="10" lengthAdjust="spacing" textLength="45" x="162.5" y="1110.6901">in_chanel</text><text fill="#000000" font-family="sans-serif" font-size="10" lengthAdjust="spacing" textLength="12" x="224" y="1110.6901">64</text><line style="stroke:#A80036;stroke-width:1.0;" x1="219" x2="219" y1="1099.4001" y2="1115.4001"/><line style="stroke:#A80036;stroke-width:1.0;" x1="151" x2="247" y1="1115.4001" y2="1115.4001"/><text fill="#000000" font-family="sans-serif" font-size="10" lengthAdjust="spacing" textLength="58" x="156" y="1126.6901">out_channel</text><text fill="#000000" font-family="sans-serif" font-size="10" lengthAdjust="spacing" textLength="18" x="224" y="1126.6901">128</text><line style="stroke:#A80036;stroke-width:1.0;" x1="219" x2="219" y1="1115.4001" y2="1131.4001"/><rect fill="#FEFECE" filter="url(#fvxhda3ip4yhw)" height="34.4001" style="stroke:#A80036;stroke-width:1.5;" width="85" x="156.5" y="1197"/><text fill="#000000" font-family="sans-serif" font-size="12" lengthAdjust="spacing" textLength="47" x="175.5" y="1210.1481">PReLU4</text><line style="stroke:#A80036;stroke-width:1.0;" x1="156.5" x2="241.5" y1="1215.4001" y2="1215.4001"/><text fill="#000000" font-family="sans-serif" font-size="10" lengthAdjust="spacing" textLength="47" x="161.5" y="1226.6901">input_size</text><text fill="#000000" font-family="sans-serif" font-size="10" lengthAdjust="spacing" textLength="18" x="218.5" y="1226.6901">128</text><line style="stroke:#A80036;stroke-width:1.0;" x1="213.5" x2="213.5" y1="1215.4001" y2="1231.4001"/><rect fill="#FEFECE" filter="url(#fvxhda3ip4yhw)" height="50.4001" style="stroke:#A80036;stroke-width:1.5;" width="103" x="147.5" y="1495"/><text fill="#000000" font-family="sans-serif" font-size="12" lengthAdjust="spacing" textLength="23" x="187.5" y="1508.1481">FC5</text><line style="stroke:#A80036;stroke-width:1.0;" x1="147.5" x2="250.5" y1="1513.4001" y2="1513.4001"/><text fill="#000000" font-family="sans-serif" font-size="10" lengthAdjust="spacing" textLength="52" x="156" y="1524.6901">in_features</text><text fill="#000000" font-family="sans-serif" font-size="10" lengthAdjust="spacing" textLength="24" x="221.5" y="1524.6901">1152</text><line style="stroke:#A80036;stroke-width:1.0;" x1="216.5" x2="216.5" y1="1513.4001" y2="1529.4001"/><line style="stroke:#A80036;stroke-width:1.0;" x1="147.5" x2="250.5" y1="1529.4001" y2="1529.4001"/><text fill="#000000" font-family="sans-serif" font-size="10" lengthAdjust="spacing" textLength="59" x="152.5" y="1540.6901">out_features</text><text fill="#000000" font-family="sans-serif" font-size="10" lengthAdjust="spacing" textLength="18" x="221.5" y="1540.6901">256</text><line style="stroke:#A80036;stroke-width:1.0;" x1="216.5" x2="216.5" y1="1529.4001" y2="1545.4001"/><rect fill="#FEFECE" filter="url(#fvxhda3ip4yhw)" height="34.4001" style="stroke:#A80036;stroke-width:1.5;" width="85" x="156.5" y="1611"/><text fill="#000000" font-family="sans-serif" font-size="12" lengthAdjust="spacing" textLength="47" x="175.5" y="1624.1481">PReLU5</text><line style="stroke:#A80036;stroke-width:1.0;" x1="156.5" x2="241.5" y1="1629.4001" y2="1629.4001"/><text fill="#000000" font-family="sans-serif" font-size="10" lengthAdjust="spacing" textLength="47" x="161.5" y="1640.6901">input_size</text><text fill="#000000" font-family="sans-serif" font-size="10" lengthAdjust="spacing" textLength="18" x="218.5" y="1640.6901">256</text><line style="stroke:#A80036;stroke-width:1.0;" x1="213.5" x2="213.5" y1="1629.4001" y2="1645.4001"/><rect fill="#FEFECE" filter="url(#fvxhda3ip4yhw)" height="50.4001" style="stroke:#A80036;stroke-width:1.5;" width="92" x="7" y="1712"/><text fill="#000000" font-family="sans-serif" font-size="12" lengthAdjust="spacing" textLength="37" x="34.5" y="1725.1481">FC6_1</text><line style="stroke:#A80036;stroke-width:1.0;" x1="7" x2="99" y1="1730.4001" y2="1730.4001"/><text fill="#000000" font-family="sans-serif" font-size="10" lengthAdjust="spacing" textLength="52" x="13" y="1741.6901">in_features</text><text fill="#000000" font-family="sans-serif" font-size="10" lengthAdjust="spacing" textLength="18" x="76" y="1741.6901">256</text><line style="stroke:#A80036;stroke-width:1.0;" x1="71" x2="71" y1="1730.4001" y2="1746.4001"/><line style="stroke:#A80036;stroke-width:1.0;" x1="7" x2="99" y1="1746.4001" y2="1746.4001"/><text fill="#000000" font-family="sans-serif" font-size="10" lengthAdjust="spacing" textLength="54" x="12" y="1757.6901">out_feature</text><text fill="#000000" font-family="sans-serif" font-size="10" lengthAdjust="spacing" textLength="6" x="76" y="1757.6901">2</text><line style="stroke:#A80036;stroke-width:1.0;" x1="71" x2="71" y1="1746.4001" y2="1762.4001"/><rect fill="#FEFECE" filter="url(#fvxhda3ip4yhw)" height="34.4001" style="stroke:#A80036;stroke-width:1.5;" width="79" x="13.5" y="1828"/><text fill="#000000" font-family="sans-serif" font-size="12" lengthAdjust="spacing" textLength="65" x="20.5" y="1841.1481">Softmax6_1</text><line style="stroke:#A80036;stroke-width:1.0;" x1="13.5" x2="92.5" y1="1846.4001" y2="1846.4001"/><text fill="#000000" font-family="sans-serif" font-size="10" lengthAdjust="spacing" textLength="16" x="18.5" y="1857.6901">dim</text><text fill="#000000" font-family="sans-serif" font-size="10" lengthAdjust="spacing" textLength="6" x="44.5" y="1857.6901">1</text><line style="stroke:#A80036;stroke-width:1.0;" x1="39.5" x2="39.5" y1="1846.4001" y2="1862.4001"/><rect fill="#FEFECE" filter="url(#fvxhda3ip4yhw)" height="50.4001" style="stroke:#A80036;stroke-width:1.5;" width="97" x="150.5" y="1712"/><text fill="#000000" font-family="sans-serif" font-size="12" lengthAdjust="spacing" textLength="37" x="180.5" y="1725.1481">FC6_2</text><line style="stroke:#A80036;stroke-width:1.0;" x1="150.5" x2="247.5" y1="1730.4001" y2="1730.4001"/><text fill="#000000" font-family="sans-serif" font-size="10" lengthAdjust="spacing" textLength="52" x="159" y="1741.6901">in_features</text><text fill="#000000" font-family="sans-serif" font-size="10" lengthAdjust="spacing" textLength="18" x="224.5" y="1741.6901">256</text><line style="stroke:#A80036;stroke-width:1.0;" x1="219.5" x2="219.5" y1="1730.4001" y2="1746.4001"/><line style="stroke:#A80036;stroke-width:1.0;" x1="150.5" x2="247.5" y1="1746.4001" y2="1746.4001"/><text fill="#000000" font-family="sans-serif" font-size="10" lengthAdjust="spacing" textLength="59" x="155.5" y="1757.6901">out_features</text><text fill="#000000" font-family="sans-serif" font-size="10" lengthAdjust="spacing" textLength="6" x="224.5" y="1757.6901">4</text><line style="stroke:#A80036;stroke-width:1.0;" x1="219.5" x2="219.5" y1="1746.4001" y2="1762.4001"/><rect fill="#FEFECE" filter="url(#fvxhda3ip4yhw)" height="50.4001" style="stroke:#A80036;stroke-width:1.5;" width="97" x="298.5" y="1712"/><text fill="#000000" font-family="sans-serif" font-size="12" lengthAdjust="spacing" textLength="37" x="328.5" y="1725.1481">FC6_3</text><line style="stroke:#A80036;stroke-width:1.0;" x1="298.5" x2="395.5" y1="1730.4001" y2="1730.4001"/><text fill="#000000" font-family="sans-serif" font-size="10" lengthAdjust="spacing" textLength="52" x="307" y="1741.6901">in_features</text><text fill="#000000" font-family="sans-serif" font-size="10" lengthAdjust="spacing" textLength="18" x="372.5" y="1741.6901">256</text><line style="stroke:#A80036;stroke-width:1.0;" x1="367.5" x2="367.5" y1="1730.4001" y2="1746.4001"/><line style="stroke:#A80036;stroke-width:1.0;" x1="298.5" x2="395.5" y1="1746.4001" y2="1746.4001"/><text fill="#000000" font-family="sans-serif" font-size="10" lengthAdjust="spacing" textLength="59" x="303.5" y="1757.6901">out_features</text><text fill="#000000" font-family="sans-serif" font-size="10" lengthAdjust="spacing" textLength="12" x="372.5" y="1757.6901">10</text><line style="stroke:#A80036;stroke-width:1.0;" x1="367.5" x2="367.5" y1="1746.4001" y2="1762.4001"/><rect fill="#FEFECE" filter="url(#fvxhda3ip4yhw)" height="34.4001" style="stroke:#A80036;stroke-width:1.5;" width="97" x="150.5" y="1298"/><text fill="#000000" font-family="sans-serif" font-size="12" lengthAdjust="spacing" textLength="46" x="176" y="1311.1481">Permute</text><line style="stroke:#A80036;stroke-width:1.0;" x1="150.5" x2="247.5" y1="1316.4001" y2="1316.4001"/><text fill="#000000" font-family="sans-serif" font-size="10" lengthAdjust="spacing" textLength="29" x="155.5" y="1327.6901">shape</text><text fill="#000000" font-family="sans-serif" font-size="10" lengthAdjust="spacing" textLength="48" x="194.5" y="1327.6901">(0, 3, 2, 1)</text><line style="stroke:#A80036;stroke-width:1.0;" x1="189.5" x2="189.5" y1="1316.4001" y2="1332.4001"/><rect fill="#FEFECE" filter="url(#fvxhda3ip4yhw)" height="18.4001" style="stroke:#A80036;stroke-width:1.5;" width="51" x="173.5" y="1404"/><text fill="#000000" font-family="sans-serif" font-size="12" lengthAdjust="spacing" textLength="37" x="180.5" y="1417.1481">Flatten</text><!--MD5=[fb3a6f47aace28a4986623885c86ad37]
link Conv1 to PReLU1--><path codeLine="206" d="M199,74.01 C199,91.56 199,112.49 199,128.47 " fill="none" id="Conv1-to-PReLU1" style="stroke:#A80036;stroke-width:1.0;"/><polygon fill="#A80036" points="199,133.68,203,124.68,199,128.68,195,124.68,199,133.68" style="stroke:#A80036;stroke-width:1.0;"/><!--MD5=[64b15d6c0af67dd9b79769c0de7f1ead]
link PReLU1 to Pool1--><path codeLine="207" d="M199,175.1 C199,190.11 199,211.32 199,229.84 " fill="none" id="PReLU1-to-Pool1" style="stroke:#A80036;stroke-width:1.0;"/><polygon fill="#A80036" points="199,234.98,203,225.98,199,229.98,195,225.98,199,234.98" style="stroke:#A80036;stroke-width:1.0;"/><!--MD5=[b11e73a2b60ae2d91fa3631b1b92b4f9]
link Pool1 to Conv2--><path codeLine="208" d="M199,306.07 C199,322.84 199,343.09 199,360.52 " fill="none" id="Pool1-to-Conv2" style="stroke:#A80036;stroke-width:1.0;"/><polygon fill="#A80036" points="199,365.83,203,356.83,199,360.83,195,356.83,199,365.83" style="stroke:#A80036;stroke-width:1.0;"/><!--MD5=[d44ab6a77d165d78d5d0aa1dafd5d713]
link Conv2 to PReLU2--><path codeLine="209" d="M199,437.01 C199,454.56 199,475.49 199,491.47 " fill="none" id="Conv2-to-PReLU2" style="stroke:#A80036;stroke-width:1.0;"/><polygon fill="#A80036" points="199,496.68,203,487.68,199,491.68,195,487.68,199,496.68" style="stroke:#A80036;stroke-width:1.0;"/><!--MD5=[11cef378caca680a1793531e8a7f3f15]
link PReLU2 to Pool2--><path codeLine="210" d="M199,538.1 C199,553.11 199,574.32 199,592.84 " fill="none" id="PReLU2-to-Pool2" style="stroke:#A80036;stroke-width:1.0;"/><polygon fill="#A80036" points="199,597.98,203,588.98,199,592.98,195,588.98,199,597.98" style="stroke:#A80036;stroke-width:1.0;"/><!--MD5=[be9815201d08d9534453aaf3bafbc58e]
link Pool2 to Conv3--><path codeLine="211" d="M199,669.07 C199,685.84 199,706.09 199,723.52 " fill="none" id="Pool2-to-Conv3" style="stroke:#A80036;stroke-width:1.0;"/><polygon fill="#A80036" points="199,728.83,203,719.83,199,723.83,195,719.83,199,728.83" style="stroke:#A80036;stroke-width:1.0;"/><!--MD5=[e3449f1fd71a07ffb5f212930dc9e1fa]
link Conv3 to PReLU3--><path codeLine="212" d="M199,800.01 C199,817.56 199,838.49 199,854.47 " fill="none" id="Conv3-to-PReLU3" style="stroke:#A80036;stroke-width:1.0;"/><polygon fill="#A80036" points="199,859.68,203,850.68,199,854.68,195,850.68,199,859.68" style="stroke:#A80036;stroke-width:1.0;"/><!--MD5=[9167490b4a37507f0d38ccf1b17cb8db]
link PReLU3 to Pool3--><path codeLine="213" d="M199,901.03 C199,916.27 199,937.77 199,955.57 " fill="none" id="PReLU3-to-Pool3" style="stroke:#A80036;stroke-width:1.0;"/><polygon fill="#A80036" points="199,960.97,203,951.97,199,955.97,195,951.97,199,960.97" style="stroke:#A80036;stroke-width:1.0;"/><!--MD5=[4adb2465aebc77c8107200d20580a66f]
link Pool3 to Conv4--><path codeLine="214" d="M199,1017.02 C199,1033.37 199,1054.32 199,1071.56 " fill="none" id="Pool3-to-Conv4" style="stroke:#A80036;stroke-width:1.0;"/><polygon fill="#A80036" points="199,1076.78,203,1067.78,199,1071.78,195,1067.78,199,1076.78" style="stroke:#A80036;stroke-width:1.0;"/><!--MD5=[fe9f6398c641afa35ffb14a55274bf71]
link Conv4 to PReLU4--><path codeLine="215" d="M199,1133.15 C199,1149.87 199,1171.15 199,1187.47 " fill="none" id="Conv4-to-PReLU4" style="stroke:#A80036;stroke-width:1.0;"/><polygon fill="#A80036" points="199,1192.8,203,1183.8,199,1187.8,195,1183.8,199,1192.8" style="stroke:#A80036;stroke-width:1.0;"/><!--MD5=[39eba71050684ffb17c7af97feb342f7]
link PReLU4 to Permute--><path codeLine="216" d="M199,1234.06 C199,1249.79 199,1271.98 199,1288.91 " fill="none" id="PReLU4-to-Permute" style="stroke:#A80036;stroke-width:1.0;"/><polygon fill="#A80036" points="199,1293.98,203,1284.98,199,1288.98,195,1284.98,199,1293.98" style="stroke:#A80036;stroke-width:1.0;"/><!--MD5=[6b381ae498eabb0e8e73530447261d36]
link Permute to Flatten--><path codeLine="217" d="M199,1335.03 C199,1350.76 199,1372.9 199,1389.4 " fill="none" id="Permute-to-Flatten" style="stroke:#A80036;stroke-width:1.0;"/><polygon fill="#A80036" points="199,1394.77,203,1385.77,199,1389.77,195,1385.77,199,1394.77" style="stroke:#A80036;stroke-width:1.0;"/><!--MD5=[07ef73d752d2cc66f114207145b08afd]
link Flatten to FC5--><path codeLine="218" d="M199,1431.17 C199,1445.81 199,1467.27 199,1485.19 " fill="none" id="Flatten-to-FC5" style="stroke:#A80036;stroke-width:1.0;"/><polygon fill="#A80036" points="199,1490.62,203,1481.62,199,1485.62,195,1481.62,199,1490.62" style="stroke:#A80036;stroke-width:1.0;"/><!--MD5=[c6835589f1f07fa6ec77f212049c43de]
link FC5 to PReLU5--><path codeLine="219" d="M199,1547.15 C199,1563.87 199,1585.15 199,1601.47 " fill="none" id="FC5-to-PReLU5" style="stroke:#A80036;stroke-width:1.0;"/><polygon fill="#A80036" points="199,1606.8,203,1597.8,199,1601.8,195,1597.8,199,1606.8" style="stroke:#A80036;stroke-width:1.0;"/><!--MD5=[3789242c3bee96e0f8b5b55c765e2ead]
link PReLU5 to FC6_1--><path codeLine="220" d="M172.22,1648.03 C150.43,1663.93 119.31,1686.63 94.33,1704.85 " fill="none" id="PReLU5-to-FC6_1" style="stroke:#A80036;stroke-width:1.0;"/><polygon fill="#A80036" points="90.05,1707.97,99.6757,1705.8852,94.0856,1705.0181,94.9527,1699.4281,90.05,1707.97" style="stroke:#A80036;stroke-width:1.0;"/><!--MD5=[c76da4a52d1afb90a32a0a1e673925e7]
link FC6_1 to Softmax6_1--><path codeLine="221" d="M53,1764.15 C53,1780.87 53,1802.15 53,1818.47 " fill="none" id="FC6_1-to-Softmax6_1" style="stroke:#A80036;stroke-width:1.0;"/><polygon fill="#A80036" points="53,1823.8,57,1814.8,53,1818.8,49,1814.8,53,1823.8" style="stroke:#A80036;stroke-width:1.0;"/><!--MD5=[660567844a8e82a093326d9ac69b729f]
link PReLU5 to FC6_2--><path codeLine="222" d="M199,1648.03 C199,1663.27 199,1684.77 199,1702.57 " fill="none" id="PReLU5-to-FC6_2" style="stroke:#A80036;stroke-width:1.0;"/><polygon fill="#A80036" points="199,1707.97,203,1698.97,199,1702.97,195,1698.97,199,1707.97" style="stroke:#A80036;stroke-width:1.0;"/><!--MD5=[a95b23aaed9ec8f9e97782869dedde05]
link PReLU5 to FC6_3--><path codeLine="223" d="M226.15,1648.03 C248.23,1663.93 279.78,1686.63 305.11,1704.85 " fill="none" id="PReLU5-to-FC6_3" style="stroke:#A80036;stroke-width:1.0;"/><polygon fill="#A80036" points="309.44,1707.97,304.4639,1699.4707,305.3791,1705.053,299.7967,1705.9681,309.44,1707.97" style="stroke:#A80036;stroke-width:1.0;"/><!--MD5=[e17b3a5a45a5d1991d47bdb3f16595f5]
@startuml
map Conv1 {
    in_channel => 3
    out_channel => 32
    kernel_size =>3
}
map PReLU1 {
    input_size => 32
}
map Pool1 {
    kernel_size => 3
    stride => 2
    ceil_mode => True
}
map Conv2 {
    in_channel => 32
    out_channel => 64
    kernel_size => 3
}
map PReLU2 {
    input_size => 64
}
map Pool2 {
    kernel_size => 3
    stride => 2
    ceil_mode => True
}
map Conv3 {
    in_channel => 64
    out_channel => 64
    kernel_size =>3
}
map PReLU3 {
    input_size => 64
}
map Pool3 {
    kernel_size => 2
    stride => 2
}
map Conv4 {
    in_chanel => 64
    out_channel => 128
    kernel_size = 2
}
map PReLU4 {
    input_size => 128
}
map FC5 {
    in_features => 1152
    out_features => 256
}
map PReLU5 {
    input_size => 256
}
map FC6_1 {
    in_features => 256
    out_feature => 2
}
map Softmax6_1 {
    dim => 1
}
map FC6_2 {
    in_features => 256
    out_features => 4
}
map FC6_3 {
    in_features => 256
    out_features => 10
}
map Permute {
    shape => (0, 3, 2, 1)
}
map Flatten {

}
Conv1- ->PReLU1
PReLU1- ->Pool1
Pool1- ->Conv2
Conv2- ->PReLU2
PReLU2- ->Pool2
Pool2- ->Conv3
Conv3- ->PReLU3
PReLU3- ->Pool3
Pool3- ->Conv4
Conv4- ->PReLU4
PReLU4- ->Permute
Permute- ->Flatten
Flatten- ->FC5
FC5- ->PReLU5
PReLU5- ->FC6_1
FC6_1- ->Softmax6_1
PReLU5- ->FC6_2
PReLU5- ->FC6_3
@enduml

PlantUML version 1.2021.16(Thu Dec 09 01:25:22 CST 2021)
(GPL source distribution)
Java Runtime: OpenJDK Runtime Environment
JVM: OpenJDK 64-Bit Server VM
Default Encoding: UTF-8
Language: en
Country: US
--></g></svg>