<?xml version="1.0" encoding="UTF-8" standalone="no"?><svg xmlns="http://www.w3.org/2000/svg" xmlns:xlink="http://www.w3.org/1999/xlink" contentScriptType="application/ecmascript" contentStyleType="text/css" height="1013px" preserveAspectRatio="none" style="width:252px;height:1013px;background:#FFFFFF;" version="1.1" viewBox="0 0 252 1013" width="252px" zoomAndPan="magnify"><defs><filter height="300%" id="f1lc083l7ulsxx" width="300%" x="-1" y="-1"><feGaussianBlur result="blurOut" stdDeviation="2.0"/><feColorMatrix in="blurOut" result="blurOut2" type="matrix" values="0 0 0 0 0 0 0 0 0 0 0 0 0 0 0 0 0 0 .4 0"/><feOffset dx="4.0" dy="4.0" in="blurOut2" result="blurOut3"/><feBlend in="SourceGraphic" in2="blurOut3" mode="normal"/></filter></defs><g><rect fill="#FEFECE" filter="url(#f1lc083l7ulsxx)" height="66.4001" style="stroke:#A80036;stroke-width:1.5;" width="90" x="77" y="7"/><text fill="#000000" font-family="sans-serif" font-size="12" lengthAdjust="spacing" textLength="36" x="104" y="20.1481">Conv1</text><line style="stroke:#A80036;stroke-width:1.0;" x1="77" x2="167" y1="25.4001" y2="25.4001"/><text fill="#000000" font-family="sans-serif" font-size="10" lengthAdjust="spacing" textLength="51" x="85.5" y="36.6901">in_channel</text><text fill="#000000" font-family="sans-serif" font-size="10" lengthAdjust="spacing" textLength="6" x="150" y="36.6901">3</text><line style="stroke:#A80036;stroke-width:1.0;" x1="145" x2="145" y1="25.4001" y2="41.4001"/><line style="stroke:#A80036;stroke-width:1.0;" x1="77" x2="167" y1="41.4001" y2="41.4001"/><text fill="#000000" font-family="sans-serif" font-size="10" lengthAdjust="spacing" textLength="58" x="82" y="52.6901">out_channel</text><text fill="#000000" font-family="sans-serif" font-size="10" lengthAdjust="spacing" textLength="12" x="150" y="52.6901">10</text><line style="stroke:#A80036;stroke-width:1.0;" x1="145" x2="145" y1="41.4001" y2="57.4001"/><line style="stroke:#A80036;stroke-width:1.0;" x1="77" x2="167" y1="57.4001" y2="57.4001"/><text fill="#000000" font-family="sans-serif" font-size="10" lengthAdjust="spacing" textLength="52" x="85" y="68.6901">kernel_size</text><text fill="#000000" font-family="sans-serif" font-size="10" lengthAdjust="spacing" textLength="6" x="150" y="68.6901">3</text><line style="stroke:#A80036;stroke-width:1.0;" x1="145" x2="145" y1="57.4001" y2="73.4001"/><rect fill="#FEFECE" filter="url(#f1lc083l7ulsxx)" height="34.4001" style="stroke:#A80036;stroke-width:1.5;" width="79" x="82.5" y="138"/><text fill="#000000" font-family="sans-serif" font-size="12" lengthAdjust="spacing" textLength="47" x="98.5" y="151.1481">PReLU1</text><line style="stroke:#A80036;stroke-width:1.0;" x1="82.5" x2="161.5" y1="156.4001" y2="156.4001"/><text fill="#000000" font-family="sans-serif" font-size="10" lengthAdjust="spacing" textLength="47" x="87.5" y="167.6901">input_size</text><text fill="#000000" font-family="sans-serif" font-size="10" lengthAdjust="spacing" textLength="12" x="144.5" y="167.6901">10</text><line style="stroke:#A80036;stroke-width:1.0;" x1="139.5" x2="139.5" y1="156.4001" y2="172.4001"/><rect fill="#FEFECE" filter="url(#f1lc083l7ulsxx)" height="66.4001" style="stroke:#A80036;stroke-width:1.5;" width="93" x="75.5" y="239"/><text fill="#000000" font-family="sans-serif" font-size="12" lengthAdjust="spacing" textLength="32" x="106" y="252.1481">Pool1</text><line style="stroke:#A80036;stroke-width:1.0;" x1="75.5" x2="168.5" y1="257.4001" y2="257.4001"/><text fill="#000000" font-family="sans-serif" font-size="10" lengthAdjust="spacing" textLength="52" x="80.5" y="268.6901">kernel_size</text><text fill="#000000" font-family="sans-serif" font-size="10" lengthAdjust="spacing" textLength="6" x="142.5" y="268.6901">2</text><line style="stroke:#A80036;stroke-width:1.0;" x1="137.5" x2="137.5" y1="257.4001" y2="273.4001"/><line style="stroke:#A80036;stroke-width:1.0;" x1="75.5" x2="168.5" y1="273.4001" y2="273.4001"/><text fill="#000000" font-family="sans-serif" font-size="10" lengthAdjust="spacing" textLength="25" x="94" y="284.6901">stride</text><text fill="#000000" font-family="sans-serif" font-size="10" lengthAdjust="spacing" textLength="6" x="142.5" y="284.6901">2</text><line style="stroke:#A80036;stroke-width:1.0;" x1="137.5" x2="137.5" y1="273.4001" y2="289.4001"/><line style="stroke:#A80036;stroke-width:1.0;" x1="75.5" x2="168.5" y1="289.4001" y2="289.4001"/><text fill="#000000" font-family="sans-serif" font-size="10" lengthAdjust="spacing" textLength="47" x="83" y="300.6901">ceil_mode</text><text fill="#000000" font-family="sans-serif" font-size="10" lengthAdjust="spacing" textLength="21" x="142.5" y="300.6901">True</text><line style="stroke:#A80036;stroke-width:1.0;" x1="137.5" x2="137.5" y1="289.4001" y2="305.4001"/><rect fill="#FEFECE" filter="url(#f1lc083l7ulsxx)" height="66.4001" style="stroke:#A80036;stroke-width:1.5;" width="90" x="77" y="370"/><text fill="#000000" font-family="sans-serif" font-size="12" lengthAdjust="spacing" textLength="36" x="104" y="383.1481">Conv2</text><line style="stroke:#A80036;stroke-width:1.0;" x1="77" x2="167" y1="388.4001" y2="388.4001"/><text fill="#000000" font-family="sans-serif" font-size="10" lengthAdjust="spacing" textLength="51" x="85.5" y="399.6901">in_channel</text><text fill="#000000" font-family="sans-serif" font-size="10" lengthAdjust="spacing" textLength="12" x="150" y="399.6901">10</text><line style="stroke:#A80036;stroke-width:1.0;" x1="145" x2="145" y1="388.4001" y2="404.4001"/><line style="stroke:#A80036;stroke-width:1.0;" x1="77" x2="167" y1="404.4001" y2="404.4001"/><text fill="#000000" font-family="sans-serif" font-size="10" lengthAdjust="spacing" textLength="58" x="82" y="415.6901">out_channel</text><text fill="#000000" font-family="sans-serif" font-size="10" lengthAdjust="spacing" textLength="12" x="150" y="415.6901">16</text><line style="stroke:#A80036;stroke-width:1.0;" x1="145" x2="145" y1="404.4001" y2="420.4001"/><line style="stroke:#A80036;stroke-width:1.0;" x1="77" x2="167" y1="420.4001" y2="420.4001"/><text fill="#000000" font-family="sans-serif" font-size="10" lengthAdjust="spacing" textLength="52" x="85" y="431.6901">kernel_size</text><text fill="#000000" font-family="sans-serif" font-size="10" lengthAdjust="spacing" textLength="6" x="150" y="431.6901">3</text><line style="stroke:#A80036;stroke-width:1.0;" x1="145" x2="145" y1="420.4001" y2="436.4001"/><rect fill="#FEFECE" filter="url(#f1lc083l7ulsxx)" height="34.4001" style="stroke:#A80036;stroke-width:1.5;" width="79" x="82.5" y="501"/><text fill="#000000" font-family="sans-serif" font-size="12" lengthAdjust="spacing" textLength="47" x="98.5" y="514.1481">PReLU2</text><line style="stroke:#A80036;stroke-width:1.0;" x1="82.5" x2="161.5" y1="519.4001" y2="519.4001"/><text fill="#000000" font-family="sans-serif" font-size="10" lengthAdjust="spacing" textLength="47" x="87.5" y="530.6901">input_size</text><text fill="#000000" font-family="sans-serif" font-size="10" lengthAdjust="spacing" textLength="12" x="144.5" y="530.6901">16</text><line style="stroke:#A80036;stroke-width:1.0;" x1="139.5" x2="139.5" y1="519.4001" y2="535.4001"/><rect fill="#FEFECE" filter="url(#f1lc083l7ulsxx)" height="66.4001" style="stroke:#A80036;stroke-width:1.5;" width="90" x="77" y="602"/><text fill="#000000" font-family="sans-serif" font-size="12" lengthAdjust="spacing" textLength="36" x="104" y="615.1481">Conv3</text><line style="stroke:#A80036;stroke-width:1.0;" x1="77" x2="167" y1="620.4001" y2="620.4001"/><text fill="#000000" font-family="sans-serif" font-size="10" lengthAdjust="spacing" textLength="51" x="85.5" y="631.6901">in_channel</text><text fill="#000000" font-family="sans-serif" font-size="10" lengthAdjust="spacing" textLength="12" x="150" y="631.6901">16</text><line style="stroke:#A80036;stroke-width:1.0;" x1="145" x2="145" y1="620.4001" y2="636.4001"/><line style="stroke:#A80036;stroke-width:1.0;" x1="77" x2="167" y1="636.4001" y2="636.4001"/><text fill="#000000" font-family="sans-serif" font-size="10" lengthAdjust="spacing" textLength="58" x="82" y="647.6901">out_channel</text><text fill="#000000" font-family="sans-serif" font-size="10" lengthAdjust="spacing" textLength="12" x="150" y="647.6901">32</text><line style="stroke:#A80036;stroke-width:1.0;" x1="145" x2="145" y1="636.4001" y2="652.4001"/><line style="stroke:#A80036;stroke-width:1.0;" x1="77" x2="167" y1="652.4001" y2="652.4001"/><text fill="#000000" font-family="sans-serif" font-size="10" lengthAdjust="spacing" textLength="52" x="85" y="663.6901">kernel_size</text><text fill="#000000" font-family="sans-serif" font-size="10" lengthAdjust="spacing" textLength="6" x="150" y="663.6901">3</text><line style="stroke:#A80036;stroke-width:1.0;" x1="145" x2="145" y1="652.4001" y2="668.4001"/><rect fill="#FEFECE" filter="url(#f1lc083l7ulsxx)" height="34.4001" style="stroke:#A80036;stroke-width:1.5;" width="79" x="82.5" y="733"/><text fill="#000000" font-family="sans-serif" font-size="12" lengthAdjust="spacing" textLength="47" x="98.5" y="746.1481">PReLU3</text><line style="stroke:#A80036;stroke-width:1.0;" x1="82.5" x2="161.5" y1="751.4001" y2="751.4001"/><text fill="#000000" font-family="sans-serif" font-size="10" lengthAdjust="spacing" textLength="47" x="87.5" y="762.6901">input_size</text><text fill="#000000" font-family="sans-serif" font-size="10" lengthAdjust="spacing" textLength="12" x="144.5" y="762.6901">32</text><line style="stroke:#A80036;stroke-width:1.0;" x1="139.5" x2="139.5" y1="751.4001" y2="767.4001"/><rect fill="#FEFECE" filter="url(#f1lc083l7ulsxx)" height="66.4001" style="stroke:#A80036;stroke-width:1.5;" width="90" x="7" y="834"/><text fill="#000000" font-family="sans-serif" font-size="12" lengthAdjust="spacing" textLength="50" x="27" y="847.1481">Conv4_1</text><line style="stroke:#A80036;stroke-width:1.0;" x1="7" x2="97" y1="852.4001" y2="852.4001"/><text fill="#000000" font-family="sans-serif" font-size="10" lengthAdjust="spacing" textLength="51" x="15.5" y="863.6901">in_channel</text><text fill="#000000" font-family="sans-serif" font-size="10" lengthAdjust="spacing" textLength="12" x="80" y="863.6901">32</text><line style="stroke:#A80036;stroke-width:1.0;" x1="75" x2="75" y1="852.4001" y2="868.4001"/><line style="stroke:#A80036;stroke-width:1.0;" x1="7" x2="97" y1="868.4001" y2="868.4001"/><text fill="#000000" font-family="sans-serif" font-size="10" lengthAdjust="spacing" textLength="58" x="12" y="879.6901">out_channel</text><text fill="#000000" font-family="sans-serif" font-size="10" lengthAdjust="spacing" textLength="6" x="80" y="879.6901">2</text><line style="stroke:#A80036;stroke-width:1.0;" x1="75" x2="75" y1="868.4001" y2="884.4001"/><line style="stroke:#A80036;stroke-width:1.0;" x1="7" x2="97" y1="884.4001" y2="884.4001"/><text fill="#000000" font-family="sans-serif" font-size="10" lengthAdjust="spacing" textLength="52" x="15" y="895.6901">kernel_size</text><text fill="#000000" font-family="sans-serif" font-size="10" lengthAdjust="spacing" textLength="6" x="80" y="895.6901">1</text><line style="stroke:#A80036;stroke-width:1.0;" x1="75" x2="75" y1="884.4001" y2="900.4001"/><rect fill="#FEFECE" filter="url(#f1lc083l7ulsxx)" height="66.4001" style="stroke:#A80036;stroke-width:1.5;" width="90" x="148" y="834"/><text fill="#000000" font-family="sans-serif" font-size="12" lengthAdjust="spacing" textLength="50" x="168" y="847.1481">Conv4_2</text><line style="stroke:#A80036;stroke-width:1.0;" x1="148" x2="238" y1="852.4001" y2="852.4001"/><text fill="#000000" font-family="sans-serif" font-size="10" lengthAdjust="spacing" textLength="51" x="156.5" y="863.6901">in_channel</text><text fill="#000000" font-family="sans-serif" font-size="10" lengthAdjust="spacing" textLength="12" x="221" y="863.6901">32</text><line style="stroke:#A80036;stroke-width:1.0;" x1="216" x2="216" y1="852.4001" y2="868.4001"/><line style="stroke:#A80036;stroke-width:1.0;" x1="148" x2="238" y1="868.4001" y2="868.4001"/><text fill="#000000" font-family="sans-serif" font-size="10" lengthAdjust="spacing" textLength="58" x="153" y="879.6901">out_channel</text><text fill="#000000" font-family="sans-serif" font-size="10" lengthAdjust="spacing" textLength="6" x="221" y="879.6901">4</text><line style="stroke:#A80036;stroke-width:1.0;" x1="216" x2="216" y1="868.4001" y2="884.4001"/><line style="stroke:#A80036;stroke-width:1.0;" x1="148" x2="238" y1="884.4001" y2="884.4001"/><text fill="#000000" font-family="sans-serif" font-size="10" lengthAdjust="spacing" textLength="52" x="156" y="895.6901">kernel_size</text><text fill="#000000" font-family="sans-serif" font-size="10" lengthAdjust="spacing" textLength="6" x="221" y="895.6901">1</text><line style="stroke:#A80036;stroke-width:1.0;" x1="216" x2="216" y1="884.4001" y2="900.4001"/><rect fill="#FEFECE" filter="url(#f1lc083l7ulsxx)" height="34.4001" style="stroke:#A80036;stroke-width:1.5;" width="79" x="12.5" y="965"/><text fill="#000000" font-family="sans-serif" font-size="12" lengthAdjust="spacing" textLength="65" x="19.5" y="978.1481">Softmax4_1</text><line style="stroke:#A80036;stroke-width:1.0;" x1="12.5" x2="91.5" y1="983.4001" y2="983.4001"/><text fill="#000000" font-family="sans-serif" font-size="10" lengthAdjust="spacing" textLength="16" x="17.5" y="994.6901">dim</text><text fill="#000000" font-family="sans-serif" font-size="10" lengthAdjust="spacing" textLength="6" x="43.5" y="994.6901">4</text><line style="stroke:#A80036;stroke-width:1.0;" x1="38.5" x2="38.5" y1="983.4001" y2="999.4001"/><!--MD5=[fb3a6f47aace28a4986623885c86ad37]
link Conv1 to PReLU1--><path codeLine="45" d="M122,74.01 C122,91.56 122,112.49 122,128.47 " fill="none" id="Conv1-to-PReLU1" style="stroke:#A80036;stroke-width:1.0;"/><polygon fill="#A80036" points="122,133.68,126,124.68,122,128.68,118,124.68,122,133.68" style="stroke:#A80036;stroke-width:1.0;"/><!--MD5=[64b15d6c0af67dd9b79769c0de7f1ead]
link PReLU1 to Pool1--><path codeLine="46" d="M122,175.1 C122,190.11 122,211.32 122,229.84 " fill="none" id="PReLU1-to-Pool1" style="stroke:#A80036;stroke-width:1.0;"/><polygon fill="#A80036" points="122,234.98,126,225.98,122,229.98,118,225.98,122,234.98" style="stroke:#A80036;stroke-width:1.0;"/><!--MD5=[b11e73a2b60ae2d91fa3631b1b92b4f9]
link Pool1 to Conv2--><path codeLine="47" d="M122,306.07 C122,322.84 122,343.09 122,360.52 " fill="none" id="Pool1-to-Conv2" style="stroke:#A80036;stroke-width:1.0;"/><polygon fill="#A80036" points="122,365.83,126,356.83,122,360.83,118,356.83,122,365.83" style="stroke:#A80036;stroke-width:1.0;"/><!--MD5=[d44ab6a77d165d78d5d0aa1dafd5d713]
link Conv2 to PReLU2--><path codeLine="48" d="M122,437.01 C122,454.56 122,475.49 122,491.47 " fill="none" id="Conv2-to-PReLU2" style="stroke:#A80036;stroke-width:1.0;"/><polygon fill="#A80036" points="122,496.68,126,487.68,122,491.68,118,487.68,122,496.68" style="stroke:#A80036;stroke-width:1.0;"/><!--MD5=[727aad2ae83500d8404a8d815da12a6c]
link PReLU2 to Conv3--><path codeLine="49" d="M122,538.1 C122,553.11 122,574.32 122,592.84 " fill="none" id="PReLU2-to-Conv3" style="stroke:#A80036;stroke-width:1.0;"/><polygon fill="#A80036" points="122,597.98,126,588.98,122,592.98,118,588.98,122,597.98" style="stroke:#A80036;stroke-width:1.0;"/><!--MD5=[e3449f1fd71a07ffb5f212930dc9e1fa]
link Conv3 to PReLU3--><path codeLine="50" d="M122,669.01 C122,686.56 122,707.49 122,723.47 " fill="none" id="Conv3-to-PReLU3" style="stroke:#A80036;stroke-width:1.0;"/><polygon fill="#A80036" points="122,728.68,126,719.68,122,723.68,118,719.68,122,728.68" style="stroke:#A80036;stroke-width:1.0;"/><!--MD5=[8d68f8b27ea59753e13bb1704a1d1010]
link PReLU3 to Conv4_1--><path codeLine="51" d="M109.97,770.1 C100.67,785.24 87.5,806.68 76.06,825.31 " fill="none" id="PReLU3-to-Conv4_1" style="stroke:#A80036;stroke-width:1.0;"/><polygon fill="#A80036" points="73.2,829.98,81.31,824.3917,75.8101,825.7154,74.4865,820.2155,73.2,829.98" style="stroke:#A80036;stroke-width:1.0;"/><!--MD5=[09040652c921ea7d3083b37b22bf174e]
link Conv4_1 to Softmax4_1--><path codeLine="52" d="M52,901.01 C52,918.56 52,939.49 52,955.47 " fill="none" id="Conv4_1-to-Softmax4_1" style="stroke:#A80036;stroke-width:1.0;"/><polygon fill="#A80036" points="52,960.68,56,951.68,52,955.68,48,951.68,52,960.68" style="stroke:#A80036;stroke-width:1.0;"/><!--MD5=[22d1f5ed253bed8e32a9c3b10c104df7]
link PReLU3 to Conv4_2--><path codeLine="53" d="M134.21,770.1 C143.64,785.24 156.99,806.68 168.59,825.31 " fill="none" id="PReLU3-to-Conv4_2" style="stroke:#A80036;stroke-width:1.0;"/><polygon fill="#A80036" points="171.5,829.98,170.1368,820.2259,168.8564,825.736,163.3464,824.4557,171.5,829.98" style="stroke:#A80036;stroke-width:1.0;"/><!--MD5=[6e2726dc12b237b4eec4a45aa7db5c5b]
@startuml
map Conv1 {
    in_channel => 3
    out_channel => 10
    kernel_size => 3
}
map PReLU1 {
    input_size => 10
}
map Pool1 {
    kernel_size => 2
    stride => 2
    ceil_mode => True
}
map Conv2 {
    in_channel =>10
    out_channel => 16
    kernel_size => 3
}
map PReLU2 {
    input_size => 16
}
map Conv3 {
    in_channel => 16
    out_channel => 32
    kernel_size => 3
}
map PReLU3 {
    input_size => 32
}
map Conv4_1 {
    in_channel => 32
    out_channel => 2
    kernel_size => 1
}
map Conv4_2 {
    in_channel => 32
    out_channel => 4
    kernel_size => 1
}
map Softmax4_1 {
    dim => 4
}

Conv1- ->PReLU1
PReLU1- ->Pool1
Pool1- ->Conv2
Conv2- ->PReLU2
PReLU2- ->Conv3
Conv3- ->PReLU3
PReLU3- ->Conv4_1
Conv4_1- ->Softmax4_1
PReLU3- ->Conv4_2

@enduml

PlantUML version 1.2021.16(Thu Dec 09 01:25:22 CST 2021)
(GPL source distribution)
Java Runtime: OpenJDK Runtime Environment
JVM: OpenJDK 64-Bit Server VM
Default Encoding: UTF-8
Language: en
Country: US
--></g></svg>